<svg width="1024" height="591" viewBox="0 0 1024 591" fill="none" xmlns="http://www.w3.org/2000/svg">
<g clip-path="url(#clip0_1118_6882)">
<path d="M616.082 17.3945V25.7496L650.358 49.5616L654.538 44.1308L616.082 17.3945Z" fill="#B38D56" fill-opacity="0.2"/>
<path d="M654.957 3.18905C654.957 1.51803 655.793 1.10028 656.629 0.682523C657.047 0.682523 657.883 1.10028 657.883 1.93579C657.883 1.51803 657.047 1.51803 657.047 1.51803C656.629 1.51803 655.793 1.93579 655.793 2.7713C655.793 3.6068 656.629 4.44231 657.883 4.44231C659.137 4.44231 659.973 3.6068 659.973 2.35354C659.973 -0.570741 656.629 -1.40625 655.375 -1.40625C650.777 -1.40625 647.015 3.18905 647.015 9.87312C647.015 13.2152 647.015 25.7478 647.015 36.6094L655.375 42.458C654.957 35.3562 654.957 4.02456 654.957 3.18905Z" fill="#B38D56" fill-opacity="0.2"/>
<path d="M644.924 -1.4047C644.924 -3.07572 645.76 -3.49347 646.596 -3.91123C647.014 -3.91123 647.85 -3.49347 647.85 -2.65796C647.85 -3.07572 647.014 -3.07572 647.014 -3.07572C646.596 -3.07572 645.76 -2.65796 645.76 -1.82245C645.76 -0.986945 646.596 -0.151436 647.85 -0.151436C649.104 -0.151436 649.94 -0.986945 649.94 -2.24021C649.94 -5.16449 646.596 -6 645.342 -6C640.744 -6 636.982 -1.4047 636.982 5.27937C636.982 7.7859 636.982 18.2298 636.982 29.5091L645.342 35.3577C644.924 19.0653 644.924 -0.56919 644.924 -1.4047Z" fill="#B38D56" fill-opacity="0.2"/>
<path d="M616.082 -1.40625C614.41 -1.40625 611.484 -0.570741 611.484 2.35354C611.484 3.6068 612.32 4.44231 613.574 4.44231C614.828 4.44231 615.664 3.6068 615.664 2.7713C615.664 1.93579 615.246 1.51803 614.41 1.51803C613.992 1.51803 613.574 1.51803 613.574 1.93579C613.574 1.10028 614.41 0.682523 614.828 0.682523C615.664 0.682523 616.5 1.51803 616.5 3.18905C616.5 3.6068 616.5 8.61986 616.5 15.3039L624.861 21.1525C624.861 15.7217 624.861 11.5441 624.861 9.45537C624.861 3.18905 621.098 -1.40625 616.082 -1.40625Z" fill="#B38D56" fill-opacity="0.2"/>
<path d="M626.116 -6C624.444 -6 621.518 -5.16449 621.518 -2.24021C621.518 -0.986946 622.354 -0.151436 623.608 -0.151436C624.862 -0.151436 625.698 -0.986945 625.698 -1.82245C625.698 -2.65796 625.28 -3.07572 624.444 -3.07572C624.026 -3.07572 623.608 -3.07572 623.608 -2.65796C623.608 -3.49347 624.444 -3.91123 624.862 -3.91123C625.698 -3.91123 626.534 -3.07572 626.534 -1.4047C626.534 -0.986945 626.534 10.2924 626.534 22.4073L634.894 28.2559C634.894 17.3943 634.894 7.36814 634.894 4.86162C634.476 -1.4047 631.132 -6 626.116 -6Z" fill="#B38D56" fill-opacity="0.2"/>
<path d="M646.179 55.4106C646.179 55.4106 647.851 53.3219 649.523 51.2331L646.179 48.7266C646.179 52.4864 646.179 55.4106 646.179 55.4106Z" fill="#B38D56" fill-opacity="0.2"/>
<path d="M644.924 56.2464C644.924 56.2464 644.924 52.9044 644.924 47.4736L636.564 41.625C636.564 55.4109 636.564 67.5258 636.564 67.5258L644.924 56.2464Z" fill="#B38D56" fill-opacity="0.2"/>
<path d="M624.861 55.4116C624.861 55.4116 624.861 44.55 624.861 33.6884L616.501 27.8398V44.55C616.083 44.1323 624.861 55.4116 624.861 55.4116Z" fill="#B38D56" fill-opacity="0.2"/>
<path d="M634.475 67.5261C634.475 67.5261 634.475 54.5757 634.475 40.372L626.115 34.5234C626.115 46.2206 626.115 56.2467 626.115 56.2467L634.475 67.5261Z" fill="#B38D56" fill-opacity="0.2"/>
<path d="M616.082 225.02V233.375L650.358 257.187L654.538 251.756L616.082 225.02Z" fill="#B38D56" fill-opacity="0.2"/>
<path d="M654.957 210.814C654.957 209.143 655.793 208.725 656.629 208.308C657.047 208.308 657.883 208.725 657.883 209.561C657.883 209.143 657.047 209.143 657.047 209.143C656.629 209.143 655.793 209.561 655.793 210.396C655.793 211.232 656.629 212.067 657.883 212.067C659.137 212.067 659.973 211.232 659.973 209.979C659.973 207.054 656.629 206.219 655.375 206.219C650.777 206.219 647.015 210.814 647.015 217.498C647.015 220.84 647.015 233.373 647.015 244.234L655.375 250.083C654.957 242.563 654.957 211.65 654.957 210.814Z" fill="#B38D56" fill-opacity="0.2"/>
<path d="M644.924 206.22C644.924 204.549 645.76 204.132 646.596 203.714C647.014 203.714 647.85 204.132 647.85 204.967C647.85 204.549 647.014 204.549 647.014 204.549C646.596 204.549 645.76 204.967 645.76 205.803C645.76 206.638 646.596 207.474 647.85 207.474C649.104 207.474 649.94 206.638 649.94 205.385C649.94 202.46 646.596 201.625 645.342 201.625C640.744 201.625 636.982 206.22 636.982 212.904C636.982 215.411 636.982 225.855 636.982 237.134L645.342 242.983C644.924 226.69 644.924 206.638 644.924 206.22Z" fill="#B38D56" fill-opacity="0.2"/>
<path d="M616.082 206.219C614.41 206.219 611.484 207.054 611.484 209.979C611.484 211.232 612.32 212.067 613.574 212.067C614.828 212.067 615.664 211.232 615.664 210.396C615.664 209.561 615.246 209.143 614.41 209.143C613.992 209.143 613.574 209.143 613.574 209.561C613.574 208.725 614.41 208.308 614.828 208.308C615.664 208.308 616.5 209.143 616.5 210.814C616.5 211.232 616.5 216.245 616.5 222.929L624.861 228.778C624.861 223.347 624.861 219.169 624.861 217.08C624.861 210.814 621.098 206.219 616.082 206.219Z" fill="#B38D56" fill-opacity="0.2"/>
<path d="M626.116 201.625C624.444 201.625 621.518 202.46 621.518 205.385C621.518 206.638 622.354 207.474 623.608 207.474C624.862 207.474 625.698 206.638 625.698 205.803C625.698 204.967 625.28 204.549 624.444 204.549C624.026 204.549 623.608 204.549 623.608 204.967C623.608 204.132 624.444 203.714 624.862 203.714C625.698 203.714 626.534 204.549 626.534 206.22C626.534 206.638 626.534 217.917 626.534 230.032L634.894 235.881C634.894 225.019 634.894 214.993 634.894 212.487C634.476 206.22 631.132 201.625 626.116 201.625Z" fill="#B38D56" fill-opacity="0.2"/>
<path d="M646.179 262.618C646.179 262.618 647.851 260.529 649.523 258.44L646.179 255.934C646.179 260.111 646.179 262.618 646.179 262.618Z" fill="#B38D56" fill-opacity="0.2"/>
<path d="M644.924 263.871C644.924 263.871 644.924 260.529 644.924 255.099L636.564 249.25C636.564 263.036 636.564 275.151 636.564 275.151L644.924 263.871Z" fill="#B38D56" fill-opacity="0.2"/>
<path d="M624.861 262.619C624.861 262.619 624.861 251.757 624.861 240.895L616.501 235.047V251.757C616.083 251.757 624.861 262.619 624.861 262.619Z" fill="#B38D56" fill-opacity="0.2"/>
<path d="M634.475 275.151C634.475 275.151 634.475 262.201 634.475 247.997L626.115 242.148C626.115 253.846 626.115 263.872 626.115 263.872L634.475 275.151Z" fill="#B38D56" fill-opacity="0.2"/>
<path d="M616.082 432.227V440.582L650.358 464.811L654.538 459.381L616.082 432.227Z" fill="#B38D56" fill-opacity="0.2"/>
<path d="M654.957 418.439C654.957 416.768 655.793 416.35 656.629 415.933C657.047 415.933 657.883 416.35 657.883 417.186C657.883 416.768 657.047 416.768 657.047 416.768C656.629 416.768 655.793 417.186 655.793 418.021C655.793 418.857 656.629 419.692 657.883 419.692C659.137 419.692 659.973 418.857 659.973 417.604C659.973 414.679 656.629 413.844 655.375 413.844C650.777 413.844 647.015 418.439 647.015 425.123C647.015 428.465 647.015 440.998 647.015 451.859L655.375 457.708C654.957 450.188 654.957 419.275 654.957 418.439Z" fill="#B38D56" fill-opacity="0.2"/>
<path d="M644.924 413.845C644.924 412.174 645.76 411.757 646.596 411.339C647.014 411.339 647.85 411.757 647.85 412.592C647.85 412.174 647.014 412.174 647.014 412.174C646.596 412.174 645.76 412.592 645.76 413.428C645.76 414.263 646.596 415.099 647.85 415.099C649.104 415.099 649.94 414.263 649.94 413.01C649.94 410.086 646.596 409.25 645.342 409.25C640.744 409.25 636.982 413.845 636.982 420.529C636.982 423.036 636.982 433.48 636.982 444.759L645.342 450.608C644.924 434.315 644.924 414.263 644.924 413.845Z" fill="#B38D56" fill-opacity="0.2"/>
<path d="M616.082 413.844C614.41 413.844 611.484 414.679 611.484 417.604C611.484 418.857 612.32 419.692 613.574 419.692C614.828 419.692 615.664 418.857 615.664 418.021C615.664 417.186 615.246 416.768 614.41 416.768C613.992 416.768 613.574 416.768 613.574 417.186C613.574 416.35 614.41 415.933 614.828 415.933C615.664 415.933 616.5 416.768 616.5 418.439C616.5 418.857 616.5 423.87 616.5 430.554L624.861 436.402C624.861 430.972 624.861 426.794 624.861 424.705C624.861 418.439 621.098 413.844 616.082 413.844Z" fill="#B38D56" fill-opacity="0.2"/>
<path d="M626.116 409.25C624.444 409.25 621.518 410.086 621.518 413.01C621.518 414.263 622.354 415.099 623.608 415.099C624.862 415.099 625.698 414.263 625.698 413.428C625.698 412.592 625.28 412.174 624.444 412.174C624.026 412.174 623.608 412.174 623.608 412.592C623.608 411.757 624.444 411.339 624.862 411.339C625.698 411.339 626.534 412.174 626.534 413.845C626.534 414.263 626.534 425.542 626.534 437.657L634.894 443.506C634.894 432.644 634.894 422.618 634.894 420.112C634.476 413.845 631.132 409.25 626.116 409.25Z" fill="#B38D56" fill-opacity="0.2"/>
<path d="M646.179 470.243C646.179 470.243 647.851 468.154 649.523 466.065L646.179 463.559C646.179 467.736 646.179 470.243 646.179 470.243Z" fill="#B38D56" fill-opacity="0.2"/>
<path d="M644.924 471.496C644.924 471.496 644.924 468.154 644.924 462.724L636.564 456.875C636.564 470.661 636.564 482.776 636.564 482.776L644.924 471.496Z" fill="#B38D56" fill-opacity="0.2"/>
<path d="M624.861 470.244C624.861 470.244 624.861 459.382 624.861 448.52L616.501 442.672V459.382C616.083 459.382 624.861 470.244 624.861 470.244Z" fill="#B38D56" fill-opacity="0.2"/>
<path d="M634.475 482.358C634.475 482.358 634.475 469.408 634.475 455.204L626.115 449.355C626.115 461.053 626.115 471.079 626.115 471.079C626.115 471.496 634.475 482.358 634.475 482.358Z" fill="#B38D56" fill-opacity="0.2"/>
<path d="M738.141 121V129.355L772.418 153.585L776.598 148.154L738.141 121Z" fill="#B38D56" fill-opacity="0.2"/>
<path d="M776.599 107.212C776.599 105.541 777.435 105.124 778.271 104.706C778.689 104.706 779.525 105.124 779.525 105.959C779.525 105.541 778.689 105.541 778.689 105.541C778.271 105.541 777.435 105.959 777.435 106.795C777.435 107.63 778.271 108.466 779.525 108.466C780.779 108.466 781.615 107.63 781.615 106.377C781.615 103.453 778.271 102.617 777.017 102.617C772.419 102.617 768.657 107.212 768.657 113.897C768.657 117.239 768.657 129.771 768.657 140.633L777.017 146.481C776.599 138.962 776.599 108.048 776.599 107.212Z" fill="#B38D56" fill-opacity="0.2"/>
<path d="M766.566 102.619C766.566 100.948 767.402 100.53 768.238 100.112C768.656 100.112 769.492 100.53 769.492 101.365C769.492 100.948 768.656 100.948 768.656 100.948C768.238 100.948 767.402 101.365 767.402 102.201C767.402 103.036 768.238 103.872 769.492 103.872C770.746 103.872 771.582 103.036 771.582 101.783C771.582 98.8589 768.238 98.0234 766.984 98.0234C762.386 98.0234 758.624 102.619 758.624 109.303C758.624 111.809 758.624 122.253 758.624 133.533L766.984 139.381C766.566 123.089 766.566 103.036 766.566 102.619Z" fill="#B38D56" fill-opacity="0.2"/>
<path d="M738.142 102.617C736.47 102.617 733.544 103.453 733.544 106.377C733.544 107.63 734.38 108.466 735.634 108.466C736.888 108.466 737.724 107.63 737.724 106.795C737.724 105.959 737.306 105.541 736.47 105.541C736.052 105.541 735.634 105.541 735.634 105.959C735.634 105.124 736.47 104.706 736.888 104.706C737.724 104.706 738.56 105.541 738.56 107.212C738.56 107.63 738.56 112.643 738.56 119.327L746.92 125.176C746.92 119.745 746.92 115.568 746.92 113.479C746.502 107.212 743.158 102.617 738.142 102.617Z" fill="#B38D56" fill-opacity="0.2"/>
<path d="M748.175 97.6055C746.503 97.6055 743.577 98.441 743.577 101.365C743.577 102.619 744.413 103.454 745.667 103.454C746.921 103.454 747.757 102.619 747.757 101.783C747.757 100.948 747.339 100.53 746.503 100.53C746.085 100.53 745.667 100.53 745.667 100.948C745.667 100.112 746.503 99.6942 746.921 99.6942C747.757 99.6942 748.593 100.53 748.593 102.201C748.593 102.619 748.593 113.898 748.593 126.013L756.953 131.861C756.953 121 756.953 110.974 756.953 108.467C756.535 102.201 752.773 97.6055 748.175 97.6055Z" fill="#B38D56" fill-opacity="0.2"/>
<path d="M768.238 159.016C768.238 159.016 769.91 156.927 771.582 154.839L768.238 152.332C768.238 156.51 768.238 159.016 768.238 159.016Z" fill="#B38D56" fill-opacity="0.2"/>
<path d="M766.568 160.27C766.568 160.27 766.568 156.928 766.568 151.497L758.208 145.648C758.208 159.434 758.208 171.549 758.208 171.549L766.568 160.27Z" fill="#B38D56" fill-opacity="0.2"/>
<path d="M746.501 159.017C746.501 159.017 746.501 148.155 746.501 137.294L738.141 131.445V148.155C738.141 147.738 746.501 159.017 746.501 159.017Z" fill="#B38D56" fill-opacity="0.2"/>
<path d="M756.534 171.132C756.534 171.132 756.534 158.181 756.534 143.977L748.174 138.129C748.174 149.826 748.174 159.852 748.174 159.852C748.174 160.27 756.534 171.132 756.534 171.132Z" fill="#B38D56" fill-opacity="0.2"/>
<path d="M843.895 52.0692C844.731 51.2337 843.895 49.9805 843.895 49.9805C843.895 49.9805 843.477 51.2337 841.805 52.487L789.554 89.2494C787.882 90.5027 786.628 90.5027 786.628 90.5027C786.628 90.5027 787.464 91.3382 788.718 90.9204C787.882 91.7559 788.718 93.0092 788.718 93.0092C788.718 93.0092 789.136 91.7559 790.808 90.5027L843.059 53.7403C844.731 52.487 845.985 52.487 845.985 52.487C845.985 52.487 845.149 51.6515 843.895 52.0692Z" fill="#B38D56" fill-opacity="0.2"/>
<path d="M788.718 156.089C787.882 155.253 788.718 154 788.718 154C788.718 154 789.136 155.253 790.808 156.507L843.059 193.269C844.731 194.522 845.985 194.522 845.985 194.522C845.985 194.522 845.149 195.358 843.895 194.94C844.731 195.775 843.895 197.029 843.895 197.029C843.895 197.029 843.477 195.775 841.805 194.522L789.554 157.76C787.882 156.507 786.628 156.507 786.628 156.507C786.628 156.507 787.882 155.671 788.718 156.089Z" fill="#B38D56" fill-opacity="0.2"/>
<path d="M667.08 52.0692C666.244 51.2337 667.08 49.9805 667.08 49.9805C667.08 49.9805 667.498 51.2337 669.17 52.487L721.421 89.2494C723.093 90.5027 724.347 90.5027 724.347 90.5027C724.347 90.5027 723.511 91.3382 722.257 90.9204C723.093 91.7559 722.257 93.0092 722.257 93.0092C722.257 93.0092 721.839 91.7559 720.167 90.5027L667.916 53.7403C666.244 52.487 664.99 52.487 664.99 52.487C664.99 52.487 665.826 51.6515 667.08 52.0692Z" fill="#B38D56" fill-opacity="0.2"/>
<path d="M667.916 192.851C666.244 194.104 664.99 194.104 664.99 194.104C664.99 194.104 665.826 194.94 667.08 194.522C666.244 195.357 667.08 196.611 667.08 196.611C667.08 196.611 667.498 195.357 669.17 194.104L721.421 157.342C723.093 156.089 724.347 156.089 724.347 156.089C724.347 156.089 723.511 155.253 722.257 155.671C723.093 154.835 722.257 153.582 722.257 153.582C722.257 153.582 721.839 154.835 720.167 156.089" fill="#B38D56" fill-opacity="0.2"/>
<path d="M860.197 17.3945V25.7496L894.473 49.5616L898.653 44.1308L860.197 17.3945Z" fill="#B38D56" fill-opacity="0.2"/>
<path d="M898.654 3.18905C898.654 1.51803 899.49 1.10028 900.326 0.682523C900.744 0.682523 901.58 1.10028 901.58 1.93579C901.58 1.51803 900.744 1.51803 900.744 1.51803C900.326 1.51803 899.49 1.93579 899.49 2.7713C899.49 3.6068 900.326 4.44231 901.58 4.44231C902.834 4.44231 903.67 3.6068 903.67 2.35354C903.67 -0.570741 900.326 -1.40625 899.072 -1.40625C894.474 -1.40625 890.712 3.18905 890.712 9.87312C890.712 13.2152 890.712 25.7478 890.712 36.6094L899.072 42.458C898.654 35.3562 898.654 4.02456 898.654 3.18905Z" fill="#B38D56" fill-opacity="0.2"/>
<path d="M888.621 -1.4047C888.621 -3.07572 889.457 -3.49347 890.293 -3.91123C890.711 -3.91123 891.547 -3.49347 891.547 -2.65796C891.547 -3.07572 890.711 -3.07572 890.711 -3.07572C890.293 -3.07572 889.457 -2.65796 889.457 -1.82245C889.457 -0.986945 890.293 -0.151436 891.547 -0.151436C892.801 -0.151436 893.637 -0.986945 893.637 -2.24021C893.637 -5.16449 890.293 -6 889.039 -6C884.441 -6 880.679 -1.4047 880.679 5.27937C880.679 7.7859 880.679 18.2298 880.679 29.5091L889.039 35.3577C888.621 19.0653 888.621 -0.56919 888.621 -1.4047Z" fill="#B38D56" fill-opacity="0.2"/>
<path d="M860.197 -1.40625C858.525 -1.40625 855.599 -0.570741 855.599 2.35354C855.599 3.6068 856.435 4.44231 857.689 4.44231C858.943 4.44231 859.779 3.6068 859.779 2.7713C859.779 1.93579 859.361 1.51803 858.525 1.51803C858.107 1.51803 857.689 1.51803 857.689 1.93579C857.689 1.10028 858.525 0.682523 858.943 0.682523C859.779 0.682523 860.615 1.51803 860.615 3.18905C860.615 3.6068 860.615 8.61986 860.615 15.3039L868.975 21.1525C868.975 15.7217 868.975 11.5441 868.975 9.45537C868.557 3.18905 864.795 -1.40625 860.197 -1.40625Z" fill="#B38D56" fill-opacity="0.2"/>
<path d="M870.231 -6C868.559 -6 865.633 -5.16449 865.633 -2.24021C865.633 -0.986946 866.469 -0.151436 867.723 -0.151436C868.977 -0.151436 869.813 -0.986945 869.813 -1.82245C869.813 -2.65796 869.395 -3.07572 868.559 -3.07572C868.141 -3.07572 867.723 -3.07572 867.723 -2.65796C867.723 -3.49347 868.559 -3.91123 868.977 -3.91123C869.813 -3.91123 870.649 -3.07572 870.649 -1.4047C870.649 -0.986945 870.649 10.2924 870.649 22.4073L879.009 28.2559C879.009 17.3943 879.009 7.36814 879.009 4.86162C878.591 -1.4047 874.829 -6 870.231 -6Z" fill="#B38D56" fill-opacity="0.2"/>
<path d="M890.294 55.4106C890.294 55.4106 891.966 53.3219 893.638 51.2331L890.294 48.7266C890.294 52.4864 890.294 55.4106 890.294 55.4106Z" fill="#B38D56" fill-opacity="0.2"/>
<path d="M888.623 56.2464C888.623 56.2464 888.623 52.9044 888.623 47.4736L880.263 41.625C880.263 55.4109 880.263 67.5258 880.263 67.5258L888.623 56.2464Z" fill="#B38D56" fill-opacity="0.2"/>
<path d="M868.557 55.4116C868.557 55.4116 868.557 44.55 868.557 33.6884L860.197 27.8398V44.55C860.197 44.1323 868.557 55.4116 868.557 55.4116Z" fill="#B38D56" fill-opacity="0.2"/>
<path d="M878.59 67.5261C878.59 67.5261 878.59 54.5757 878.59 40.372L870.23 34.5234C870.23 46.2206 870.23 56.2467 870.23 56.2467L878.59 67.5261Z" fill="#B38D56" fill-opacity="0.2"/>
<path d="M738.141 328.625V336.98L772.418 360.792L776.598 355.361L738.141 328.625Z" fill="#B38D56" fill-opacity="0.2"/>
<path d="M776.599 314.838C776.599 313.166 777.435 312.749 778.271 312.331C778.689 312.331 779.525 312.749 779.525 313.584C779.525 313.166 778.689 313.166 778.689 313.166C778.271 313.166 777.435 313.584 777.435 314.42C777.435 315.255 778.271 316.091 779.525 316.091C780.779 316.091 781.615 315.255 781.615 314.002C781.615 311.078 778.271 310.242 777.017 310.242C772.419 310.242 768.657 314.838 768.657 321.522C768.657 324.864 768.657 337.396 768.657 348.258L777.017 354.106C776.599 346.587 776.599 315.673 776.599 314.838Z" fill="#B38D56" fill-opacity="0.2"/>
<path d="M766.566 309.826C766.566 308.155 767.402 307.737 768.238 307.319C768.656 307.319 769.492 307.737 769.492 308.573C769.492 308.155 768.656 308.155 768.656 308.155C768.238 308.155 767.402 308.573 767.402 309.408C767.402 310.244 768.238 311.079 769.492 311.079C770.746 311.079 771.582 310.244 771.582 308.99C771.582 306.066 768.238 305.23 766.984 305.23C762.386 305.23 758.624 309.826 758.624 316.51C758.624 319.016 758.624 329.46 758.624 340.74L766.984 346.588C766.566 330.713 766.566 310.661 766.566 309.826Z" fill="#B38D56" fill-opacity="0.2"/>
<path d="M738.142 309.824C736.47 309.824 733.544 310.66 733.544 313.584C733.544 314.837 734.38 315.673 735.634 315.673C736.888 315.673 737.724 314.837 737.724 314.002C737.724 313.166 737.306 312.749 736.47 312.749C736.052 312.749 735.634 312.749 735.634 313.166C735.634 312.331 736.47 311.913 736.888 311.913C737.724 311.913 738.56 312.748 738.56 314.42C738.56 314.837 738.56 319.85 738.56 326.534L746.92 332.383C746.92 326.952 746.92 322.775 746.92 320.686C746.502 314.42 743.158 309.824 738.142 309.824Z" fill="#B38D56" fill-opacity="0.2"/>
<path d="M748.175 305.23C746.503 305.23 743.577 306.066 743.577 308.99C743.577 310.244 744.413 311.079 745.667 311.079C746.921 311.079 747.757 310.244 747.757 309.408C747.757 308.573 747.339 308.155 746.503 308.155C746.085 308.155 745.667 308.155 745.667 308.573C745.667 307.737 746.503 307.319 746.921 307.319C747.757 307.319 748.593 308.155 748.593 309.826C748.593 310.244 748.593 321.523 748.593 333.638L756.953 339.486C756.953 328.625 756.953 318.599 756.953 316.092C756.535 309.826 752.773 305.23 748.175 305.23Z" fill="#B38D56" fill-opacity="0.2"/>
<path d="M768.238 366.641C768.238 366.641 769.91 364.552 771.582 362.464L768.238 359.957C768.238 363.717 768.238 366.641 768.238 366.641Z" fill="#B38D56" fill-opacity="0.2"/>
<path d="M766.568 367.477C766.568 367.477 766.568 364.135 766.568 358.704L758.208 352.855C758.208 366.641 758.208 378.756 758.208 378.756L766.568 367.477Z" fill="#B38D56" fill-opacity="0.2"/>
<path d="M746.501 366.642C746.501 366.642 746.501 355.781 746.501 344.919L738.141 339.07V355.781C738.141 355.363 746.501 366.642 746.501 366.642Z" fill="#B38D56" fill-opacity="0.2"/>
<path d="M756.534 378.757C756.534 378.757 756.534 365.806 756.534 351.602L748.174 345.754C748.174 357.451 748.174 367.477 748.174 367.477L756.534 378.757Z" fill="#B38D56" fill-opacity="0.2"/>
<path d="M843.895 259.694C844.731 258.859 843.895 257.605 843.895 257.605C843.895 257.605 843.477 258.859 841.805 260.112L789.554 296.874C787.882 298.128 786.628 298.128 786.628 298.128C786.628 298.128 787.464 298.963 788.718 298.545C787.882 299.381 788.718 300.634 788.718 300.634C788.718 300.634 789.136 299.381 790.808 298.128L843.059 261.365C844.731 260.112 845.985 260.112 845.985 260.112C845.985 260.112 845.149 259.276 843.895 259.694Z" fill="#B38D56" fill-opacity="0.2"/>
<path d="M788.718 363.714C787.882 362.878 788.718 361.625 788.718 361.625C788.718 361.625 789.136 362.878 790.808 364.132L843.059 400.894C844.731 402.147 845.985 402.147 845.985 402.147C845.985 402.147 845.149 402.983 843.895 402.565C844.731 403.4 843.895 404.654 843.895 404.654C843.895 404.654 843.477 403.4 841.805 402.147L789.554 365.385C787.882 364.132 786.628 364.132 786.628 364.132C786.628 364.132 787.882 363.296 788.718 363.714Z" fill="#B38D56" fill-opacity="0.2"/>
<path d="M667.08 259.694C666.244 258.859 667.08 257.605 667.08 257.605C667.08 257.605 667.498 258.859 669.17 260.112L721.421 296.874C723.093 298.128 724.347 298.128 724.347 298.128C724.347 298.128 723.511 298.963 722.257 298.545C723.093 299.381 722.257 300.634 722.257 300.634C722.257 300.634 721.839 299.381 720.167 298.128L667.916 261.365C666.244 260.112 664.99 260.112 664.99 260.112C664.99 260.112 665.826 259.276 667.08 259.694Z" fill="#B38D56" fill-opacity="0.2"/>
<path d="M667.916 400.476C666.244 401.729 664.99 401.729 664.99 401.729C664.99 401.729 665.826 402.565 667.08 402.147C666.244 402.982 667.08 404.236 667.08 404.236C667.08 404.236 667.498 402.982 669.17 401.729L721.421 364.967C723.093 363.714 724.347 363.714 724.347 363.714C724.347 363.714 723.511 362.878 722.257 363.296C723.093 362.46 722.257 361.207 722.257 361.207C722.257 361.207 721.839 362.46 720.167 363.714" fill="#B38D56" fill-opacity="0.2"/>
<path d="M860.197 225.02V233.375L894.473 257.187L898.653 251.756L860.197 225.02Z" fill="#B38D56" fill-opacity="0.2"/>
<path d="M898.654 210.814C898.654 209.143 899.49 208.725 900.326 208.308C900.744 208.308 901.58 208.725 901.58 209.561C901.58 209.143 900.744 209.143 900.744 209.143C900.326 209.143 899.49 209.561 899.49 210.396C899.49 211.232 900.326 212.067 901.58 212.067C902.834 212.067 903.67 211.232 903.67 209.979C903.67 207.054 900.326 206.219 899.072 206.219C894.474 206.219 890.712 210.814 890.712 217.498C890.712 220.84 890.712 233.373 890.712 244.234L899.072 250.083C898.654 242.563 898.654 211.65 898.654 210.814Z" fill="#B38D56" fill-opacity="0.2"/>
<path d="M888.621 206.22C888.621 204.549 889.457 204.132 890.293 203.714C890.711 203.714 891.547 204.132 891.547 204.967C891.547 204.549 890.711 204.549 890.711 204.549C890.293 204.549 889.457 204.967 889.457 205.803C889.457 206.638 890.293 207.474 891.547 207.474C892.801 207.474 893.637 206.638 893.637 205.385C893.637 202.46 890.293 201.625 889.039 201.625C884.441 201.625 880.679 206.22 880.679 212.904C880.679 215.411 880.679 225.855 880.679 237.134L889.039 242.983C888.621 226.69 888.621 206.638 888.621 206.22Z" fill="#B38D56" fill-opacity="0.2"/>
<path d="M860.197 206.219C858.525 206.219 855.599 207.054 855.599 209.979C855.599 211.232 856.435 212.067 857.689 212.067C858.943 212.067 859.779 211.232 859.779 210.396C859.779 209.561 859.361 209.143 858.525 209.143C858.107 209.143 857.689 209.143 857.689 209.561C857.689 208.725 858.525 208.308 858.943 208.308C859.779 208.308 860.615 209.143 860.615 210.814C860.615 211.232 860.615 216.245 860.615 222.929L868.975 228.778C868.975 223.347 868.975 219.169 868.975 217.08C868.557 210.814 864.795 206.219 860.197 206.219Z" fill="#B38D56" fill-opacity="0.2"/>
<path d="M870.231 201.625C868.559 201.625 865.633 202.46 865.633 205.385C865.633 206.638 866.469 207.474 867.723 207.474C868.977 207.474 869.813 206.638 869.813 205.803C869.813 204.967 869.395 204.549 868.559 204.549C868.141 204.549 867.723 204.549 867.723 204.967C867.723 204.132 868.559 203.714 868.977 203.714C869.813 203.714 870.649 204.549 870.649 206.22C870.649 206.638 870.649 217.917 870.649 230.032L879.009 235.881C879.009 225.019 879.009 214.993 879.009 212.487C878.591 206.22 874.829 201.625 870.231 201.625Z" fill="#B38D56" fill-opacity="0.2"/>
<path d="M890.294 262.618C890.294 262.618 891.966 260.529 893.638 258.44L890.294 255.934C890.294 260.111 890.294 262.618 890.294 262.618Z" fill="#B38D56" fill-opacity="0.2"/>
<path d="M888.623 263.871C888.623 263.871 888.623 260.529 888.623 255.099L880.263 249.25C880.263 263.036 880.263 275.151 880.263 275.151L888.623 263.871Z" fill="#B38D56" fill-opacity="0.2"/>
<path d="M868.557 262.619C868.557 262.619 868.557 251.757 868.557 240.895L860.197 235.047V251.757L868.557 262.619Z" fill="#B38D56" fill-opacity="0.2"/>
<path d="M878.59 275.151C878.59 275.151 878.59 262.201 878.59 247.997L870.23 242.148C870.23 253.846 870.23 263.872 870.23 263.872L878.59 275.151Z" fill="#B38D56" fill-opacity="0.2"/>
<path d="M738.141 536.25V544.605L772.418 568.417L776.598 562.986L738.141 536.25Z" fill="#B38D56" fill-opacity="0.2"/>
<path d="M776.599 522.045C776.599 520.373 777.435 519.956 778.271 519.538C778.689 519.538 779.525 519.956 779.525 520.791C779.525 520.373 778.689 520.373 778.689 520.373C778.271 520.373 777.435 520.791 777.435 521.627C777.435 522.462 778.271 523.298 779.525 523.298C780.779 523.298 781.615 522.462 781.615 521.209C781.615 518.285 778.271 517.449 777.017 517.449C772.419 517.449 768.657 522.045 768.657 528.729C768.657 532.071 768.657 544.603 768.657 555.465L777.017 561.313C776.599 554.212 776.599 522.88 776.599 522.045Z" fill="#B38D56" fill-opacity="0.2"/>
<path d="M766.566 517.451C766.566 515.78 767.402 515.362 768.238 514.944C768.656 514.944 769.492 515.362 769.492 516.198C769.492 515.78 768.656 515.78 768.656 515.78C768.238 515.78 767.402 516.198 767.402 517.033C767.402 517.869 768.238 518.704 769.492 518.704C770.746 518.704 771.582 517.869 771.582 516.615C771.582 513.691 768.238 512.855 766.984 512.855C762.386 512.855 758.624 517.451 758.624 524.135C758.624 526.641 758.624 537.085 758.624 548.365L766.984 554.213C766.566 538.339 766.566 518.286 766.566 517.451Z" fill="#B38D56" fill-opacity="0.2"/>
<path d="M738.142 517.449C736.47 517.449 733.544 518.285 733.544 521.209C733.544 522.462 734.38 523.298 735.634 523.298C736.888 523.298 737.724 522.462 737.724 521.627C737.724 520.791 737.306 520.373 736.47 520.373C736.052 520.373 735.634 520.373 735.634 520.791C735.634 519.956 736.47 519.538 736.888 519.538C737.724 519.538 738.56 520.373 738.56 522.045C738.56 522.462 738.56 527.475 738.56 534.159L746.92 540.008C746.92 534.577 746.92 530.4 746.92 528.311C746.502 522.045 743.158 517.449 738.142 517.449Z" fill="#B38D56" fill-opacity="0.2"/>
<path d="M748.175 512.855C746.503 512.855 743.577 513.691 743.577 516.615C743.577 517.869 744.413 518.704 745.667 518.704C746.921 518.704 747.757 517.869 747.757 517.033C747.757 516.198 747.339 515.78 746.503 515.78C746.085 515.78 745.667 515.78 745.667 516.198C745.667 515.362 746.503 514.944 746.921 514.944C747.757 514.944 748.593 515.78 748.593 517.451C748.593 517.869 748.593 529.148 748.593 541.263L756.953 547.111C756.953 536.25 756.953 526.224 756.953 523.717C756.535 517.451 752.773 512.855 748.175 512.855Z" fill="#B38D56" fill-opacity="0.2"/>
<path d="M768.238 574.266C768.238 574.266 769.91 572.177 771.582 570.089L768.238 567.582C768.238 571.342 768.238 574.266 768.238 574.266Z" fill="#B38D56" fill-opacity="0.2"/>
<path d="M766.568 575.102C766.568 575.102 766.568 571.76 766.568 566.329L758.208 560.48C758.208 574.266 758.208 586.381 758.208 586.381L766.568 575.102Z" fill="#B38D56" fill-opacity="0.2"/>
<path d="M746.501 574.267C746.501 574.267 746.501 563.405 746.501 552.544L738.141 546.695V563.406C738.141 562.988 746.501 574.267 746.501 574.267Z" fill="#B38D56" fill-opacity="0.2"/>
<path d="M756.534 586.382C756.534 586.382 756.534 573.431 756.534 559.228L748.174 553.379C748.174 565.076 748.174 575.102 748.174 575.102L756.534 586.382Z" fill="#B38D56" fill-opacity="0.2"/>
<path d="M843.895 467.319C844.731 466.484 843.895 465.23 843.895 465.23C843.895 465.23 843.477 466.484 841.805 467.737L789.554 504.499C787.882 505.753 786.628 505.753 786.628 505.753C786.628 505.753 787.464 506.588 788.718 506.17C787.882 507.006 788.718 508.259 788.718 508.259C788.718 508.259 789.136 507.006 790.808 505.753L843.059 468.99C844.731 467.737 845.985 467.737 845.985 467.737C845.985 467.737 845.149 466.901 843.895 467.319Z" fill="#B38D56" fill-opacity="0.2"/>
<path d="M667.08 467.319C666.244 466.484 667.08 465.23 667.08 465.23C667.08 465.23 667.498 466.484 669.17 467.737L721.421 504.499C723.093 505.753 724.347 505.753 724.347 505.753C724.347 505.753 723.511 506.588 722.257 506.17C723.093 507.006 722.257 508.259 722.257 508.259C722.257 508.259 721.839 507.006 720.167 505.753L667.916 468.99C666.244 467.737 664.99 467.737 664.99 467.737C664.99 467.737 665.826 466.901 667.08 467.319Z" fill="#B38D56" fill-opacity="0.2"/>
<path d="M667.916 608.101C666.244 609.354 664.99 609.354 664.99 609.354C664.99 609.354 665.826 610.19 667.08 609.772C666.244 610.607 667.08 611.861 667.08 611.861C667.08 611.861 667.498 610.607 669.17 609.354L721.421 572.592C723.093 571.339 724.347 571.339 724.347 571.339C724.347 571.339 723.511 570.503 722.257 570.921C723.093 570.085 722.257 568.832 722.257 568.832C722.257 568.832 721.839 570.085 720.167 571.339" fill="#B38D56" fill-opacity="0.2"/>
<path d="M860.197 432.227V440.582L894.473 464.811L898.653 459.381L860.197 432.227Z" fill="#B38D56" fill-opacity="0.2"/>
<path d="M898.654 418.439C898.654 416.768 899.49 416.35 900.326 415.933C900.744 415.933 901.58 416.35 901.58 417.186C901.58 416.768 900.744 416.768 900.744 416.768C900.326 416.768 899.49 417.186 899.49 418.021C899.49 418.857 900.326 419.692 901.58 419.692C902.834 419.692 903.67 418.857 903.67 417.604C903.67 414.679 900.326 413.844 899.072 413.844C894.474 413.844 890.712 418.439 890.712 425.123C890.712 428.465 890.712 440.998 890.712 451.859L899.072 457.708C898.654 450.188 898.654 419.275 898.654 418.439Z" fill="#B38D56" fill-opacity="0.2"/>
<path d="M888.621 413.845C888.621 412.174 889.457 411.757 890.293 411.339C890.711 411.339 891.547 411.757 891.547 412.592C891.547 412.174 890.711 412.174 890.711 412.174C890.293 412.174 889.457 412.592 889.457 413.428C889.457 414.263 890.293 415.099 891.547 415.099C892.801 415.099 893.637 414.263 893.637 413.01C893.637 410.086 890.293 409.25 889.039 409.25C884.441 409.25 880.679 413.845 880.679 420.529C880.679 423.036 880.679 433.48 880.679 444.759L889.039 450.608C888.621 434.315 888.621 414.263 888.621 413.845Z" fill="#B38D56" fill-opacity="0.2"/>
<path d="M860.197 413.844C858.525 413.844 855.599 414.679 855.599 417.604C855.599 418.857 856.435 419.692 857.689 419.692C858.943 419.692 859.779 418.857 859.779 418.021C859.779 417.186 859.361 416.768 858.525 416.768C858.107 416.768 857.689 416.768 857.689 417.186C857.689 416.35 858.525 415.933 858.943 415.933C859.779 415.933 860.615 416.768 860.615 418.439C860.615 418.857 860.615 423.87 860.615 430.554L868.975 436.402C868.975 430.972 868.975 426.794 868.975 424.705C868.557 418.439 864.795 413.844 860.197 413.844Z" fill="#B38D56" fill-opacity="0.2"/>
<path d="M870.231 409.25C868.559 409.25 865.633 410.086 865.633 413.01C865.633 414.263 866.469 415.099 867.723 415.099C868.977 415.099 869.813 414.263 869.813 413.428C869.813 412.592 869.395 412.174 868.559 412.174C868.141 412.174 867.723 412.174 867.723 412.592C867.723 411.757 868.559 411.339 868.977 411.339C869.813 411.339 870.649 412.174 870.649 413.845C870.649 414.263 870.649 425.542 870.649 437.657L879.009 443.506C879.009 432.644 879.009 422.618 879.009 420.112C878.591 413.845 874.829 409.25 870.231 409.25Z" fill="#B38D56" fill-opacity="0.2"/>
<path d="M890.294 470.243C890.294 470.243 891.966 468.154 893.638 466.065L890.294 463.559C890.294 467.736 890.294 470.243 890.294 470.243Z" fill="#B38D56" fill-opacity="0.2"/>
<path d="M888.623 471.496C888.623 471.496 888.623 468.154 888.623 462.724L880.263 456.875C880.263 470.661 880.263 482.776 880.263 482.776L888.623 471.496Z" fill="#B38D56" fill-opacity="0.2"/>
<path d="M868.557 470.244C868.557 470.244 868.557 459.382 868.557 448.52L860.197 442.672V459.382L868.557 470.244Z" fill="#B38D56" fill-opacity="0.2"/>
<path d="M878.59 482.358C878.59 482.358 878.59 469.408 878.59 455.204L870.23 449.355C870.23 461.053 870.23 471.079 870.23 471.079C870.23 471.496 878.59 482.358 878.59 482.358Z" fill="#B38D56" fill-opacity="0.2"/>
<path d="M981.838 121V129.355L1016.11 153.585L1020.29 148.154L981.838 121Z" fill="#B38D56" fill-opacity="0.2"/>
<path d="M1020.71 107.212C1020.71 105.541 1021.55 105.124 1022.38 104.706C1022.8 104.706 1023.64 105.124 1023.64 105.959C1023.64 105.541 1022.8 105.541 1022.8 105.541C1022.38 105.541 1021.55 105.959 1021.55 106.795C1021.55 107.63 1022.38 108.466 1023.64 108.466C1024.89 108.466 1025.73 107.63 1025.73 106.377C1025.73 103.453 1022.38 102.617 1021.13 102.617C1016.53 102.617 1012.77 107.212 1012.77 113.897C1012.77 117.239 1012.77 129.771 1012.77 140.633L1021.13 146.481C1020.71 138.962 1020.71 108.048 1020.71 107.212Z" fill="#B38D56" fill-opacity="0.2"/>
<path d="M1010.68 102.619C1010.68 100.948 1011.52 100.53 1012.35 100.112C1012.77 100.112 1013.61 100.53 1013.61 101.365C1013.61 100.948 1012.77 100.948 1012.77 100.948C1012.35 100.948 1011.52 101.365 1011.52 102.201C1011.52 103.036 1012.35 103.872 1013.61 103.872C1014.86 103.872 1015.7 103.036 1015.7 101.783C1015.7 98.8589 1012.35 98.0234 1011.1 98.0234C1006.5 98.0234 1002.74 102.619 1002.74 109.303C1002.74 111.809 1002.74 122.253 1002.74 133.533L1011.1 139.381C1010.68 123.089 1010.68 103.036 1010.68 102.619Z" fill="#B38D56" fill-opacity="0.2"/>
<path d="M981.838 102.617C980.166 102.617 977.24 103.453 977.24 106.377C977.24 107.63 978.076 108.466 979.33 108.466C980.584 108.466 981.42 107.63 981.42 106.795C981.42 105.959 981.002 105.541 980.166 105.541C979.748 105.541 979.33 105.541 979.33 105.959C979.33 105.124 980.166 104.706 980.584 104.706C981.42 104.706 982.256 105.541 982.256 107.212C982.256 107.63 982.256 112.643 982.256 119.327L990.616 125.176C990.616 119.745 990.616 115.568 990.616 113.479C990.198 107.212 986.854 102.617 981.838 102.617Z" fill="#B38D56" fill-opacity="0.2"/>
<path d="M991.872 97.6055C990.2 97.6055 987.274 98.441 987.274 101.365C987.274 102.619 988.11 103.454 989.364 103.454C990.618 103.454 991.454 102.619 991.454 101.783C991.454 100.948 991.036 100.53 990.2 100.53C989.782 100.53 989.364 100.53 989.364 100.948C989.364 100.112 990.2 99.6942 990.618 99.6942C991.454 99.6942 992.29 100.53 992.29 102.201C992.29 102.619 992.29 113.898 992.29 126.013L1000.65 131.861C1000.65 121 1000.65 110.974 1000.65 108.467C1000.23 102.201 996.888 97.6055 991.872 97.6055Z" fill="#B38D56" fill-opacity="0.2"/>
<path d="M1011.93 159.016C1011.93 159.016 1013.61 156.927 1015.28 154.839L1011.93 152.332C1011.93 156.51 1011.93 159.016 1011.93 159.016Z" fill="#B38D56" fill-opacity="0.2"/>
<path d="M1010.68 160.27C1010.68 160.27 1010.68 156.928 1010.68 151.497L1002.32 145.648C1002.32 159.434 1002.32 171.549 1002.32 171.549L1010.68 160.27Z" fill="#B38D56" fill-opacity="0.2"/>
<path d="M990.198 159.017C990.198 159.017 990.198 148.155 990.198 137.294L981.838 131.445V148.155C981.838 147.738 990.198 159.017 990.198 159.017Z" fill="#B38D56" fill-opacity="0.2"/>
<path d="M1000.23 171.132C1000.23 171.132 1000.23 158.181 1000.23 143.977L991.871 138.129C991.871 149.826 991.871 159.852 991.871 159.852C991.871 160.27 1000.23 171.132 1000.23 171.132Z" fill="#B38D56" fill-opacity="0.2"/>
<path d="M910.777 52.0692C909.941 51.2337 910.777 49.9805 910.777 49.9805C910.777 49.9805 911.195 51.2337 912.867 52.487L965.117 89.2494C966.789 90.5027 968.043 90.5027 968.043 90.5027C968.043 90.5027 967.207 91.3382 965.953 90.9204C966.789 91.7559 965.953 93.0092 965.953 93.0092C965.953 93.0092 965.535 91.7559 963.863 90.5027L911.612 53.7403C909.94 52.487 908.687 52.487 908.687 52.487C908.687 52.487 909.523 51.6515 910.777 52.0692Z" fill="#B38D56" fill-opacity="0.2"/>
<path d="M911.612 192.851C909.94 194.104 908.687 194.104 908.687 194.104C908.687 194.104 909.523 194.94 910.777 194.522C909.941 195.357 910.777 196.611 910.777 196.611C910.777 196.611 911.195 195.357 912.867 194.104L965.117 157.342C966.789 156.089 968.043 156.089 968.043 156.089C968.043 156.089 967.207 155.253 965.953 155.671C966.789 154.835 965.953 153.582 965.953 153.582C965.953 153.582 965.535 154.835 963.863 156.089" fill="#B38D56" fill-opacity="0.2"/>
<path d="M981.838 328.625V336.98L1016.11 360.792L1020.29 355.361L981.838 328.625Z" fill="#B38D56" fill-opacity="0.2"/>
<path d="M1020.71 314.838C1020.71 313.166 1021.55 312.749 1022.38 312.331C1022.8 312.331 1023.64 312.749 1023.64 313.584C1023.64 313.166 1022.8 313.166 1022.8 313.166C1022.38 313.166 1021.55 313.584 1021.55 314.42C1021.55 315.255 1022.38 316.091 1023.64 316.091C1024.89 316.091 1025.73 315.255 1025.73 314.002C1025.73 311.078 1022.38 310.242 1021.13 310.242C1016.53 310.242 1012.77 314.838 1012.77 321.522C1012.77 324.864 1012.77 337.396 1012.77 348.258L1021.13 354.106C1020.71 346.587 1020.71 315.673 1020.71 314.838Z" fill="#B38D56" fill-opacity="0.2"/>
<path d="M1010.68 309.826C1010.68 308.155 1011.52 307.737 1012.35 307.319C1012.77 307.319 1013.61 307.737 1013.61 308.573C1013.61 308.155 1012.77 308.155 1012.77 308.155C1012.35 308.155 1011.52 308.573 1011.52 309.408C1011.52 310.244 1012.35 311.079 1013.61 311.079C1014.86 311.079 1015.7 310.244 1015.7 308.99C1015.7 306.066 1012.35 305.23 1011.1 305.23C1006.5 305.23 1002.74 309.826 1002.74 316.51C1002.74 319.016 1002.74 329.46 1002.74 340.74L1011.1 346.588C1010.68 330.713 1010.68 310.661 1010.68 309.826Z" fill="#B38D56" fill-opacity="0.2"/>
<path d="M981.838 309.824C980.166 309.824 977.24 310.66 977.24 313.584C977.24 314.837 978.076 315.673 979.33 315.673C980.584 315.673 981.42 314.837 981.42 314.002C981.42 313.166 981.002 312.749 980.166 312.749C979.748 312.749 979.33 312.749 979.33 313.166C979.33 312.331 980.166 311.913 980.584 311.913C981.42 311.913 982.256 312.748 982.256 314.42C982.256 314.837 982.256 319.85 982.256 326.534L990.616 332.383C990.616 326.952 990.616 322.775 990.616 320.686C990.198 314.42 986.854 309.824 981.838 309.824Z" fill="#B38D56" fill-opacity="0.2"/>
<path d="M991.872 305.23C990.2 305.23 987.274 306.066 987.274 308.99C987.274 310.244 988.11 311.079 989.364 311.079C990.618 311.079 991.454 310.244 991.454 309.408C991.454 308.573 991.036 308.155 990.2 308.155C989.782 308.155 989.364 308.155 989.364 308.573C989.364 307.737 990.2 307.319 990.618 307.319C991.454 307.319 992.29 308.155 992.29 309.826C992.29 310.244 992.29 321.523 992.29 333.638L1000.65 339.486C1000.65 328.625 1000.65 318.599 1000.65 316.092C1000.23 309.826 996.888 305.23 991.872 305.23Z" fill="#B38D56" fill-opacity="0.2"/>
<path d="M1011.93 366.641C1011.93 366.641 1013.61 364.552 1015.28 362.464L1011.93 359.957C1011.93 363.717 1011.93 366.641 1011.93 366.641Z" fill="#B38D56" fill-opacity="0.2"/>
<path d="M1010.68 367.477C1010.68 367.477 1010.68 364.135 1010.68 358.704L1002.32 352.855C1002.32 366.641 1002.32 378.756 1002.32 378.756L1010.68 367.477Z" fill="#B38D56" fill-opacity="0.2"/>
<path d="M990.198 366.642C990.198 366.642 990.198 355.781 990.198 344.919L981.838 339.07V355.781C981.838 355.363 990.198 366.642 990.198 366.642Z" fill="#B38D56" fill-opacity="0.2"/>
<path d="M1000.23 378.757C1000.23 378.757 1000.23 365.806 1000.23 351.602L991.871 345.754C991.871 357.451 991.871 367.477 991.871 367.477L1000.23 378.757Z" fill="#B38D56" fill-opacity="0.2"/>
<path d="M910.777 259.694C909.941 258.859 910.777 257.605 910.777 257.605C910.777 257.605 911.195 258.859 912.867 260.112L965.117 296.874C966.789 298.128 968.043 298.128 968.043 298.128C968.043 298.128 967.207 298.963 965.953 298.545C966.789 299.381 965.953 300.634 965.953 300.634C965.953 300.634 965.535 299.381 963.863 298.128L911.612 261.365C909.94 260.112 908.687 260.112 908.687 260.112C908.687 260.112 909.523 259.276 910.777 259.694Z" fill="#B38D56" fill-opacity="0.2"/>
<path d="M911.612 400.476C909.94 401.729 908.687 401.729 908.687 401.729C908.687 401.729 909.523 402.565 910.777 402.147C909.941 402.982 910.777 404.236 910.777 404.236C910.777 404.236 911.195 402.982 912.867 401.729L965.117 364.967C966.789 363.714 968.043 363.714 968.043 363.714C968.043 363.714 967.207 362.878 965.953 363.296C966.789 362.46 965.953 361.207 965.953 361.207C965.953 361.207 965.535 362.46 963.863 363.714" fill="#B38D56" fill-opacity="0.2"/>
<path d="M529.558 121V129.355L495.282 153.585L491.102 148.154L529.558 121Z" fill="#B38D56" fill-opacity="0.2"/>
<path d="M491.102 107.212C491.102 105.541 490.266 105.124 489.43 104.706C489.012 104.706 488.176 105.124 488.176 105.959C488.176 105.541 489.012 105.541 489.012 105.541C489.43 105.541 490.266 105.959 490.266 106.795C490.266 107.63 489.43 108.466 488.176 108.466C486.922 108.466 486.086 107.63 486.086 106.377C486.086 103.453 489.43 102.617 490.684 102.617C495.282 102.617 499.044 107.212 499.044 113.897C499.044 117.239 499.044 129.771 499.044 140.633L490.684 146.481C491.102 138.962 491.102 108.048 491.102 107.212Z" fill="#B38D56" fill-opacity="0.2"/>
<path d="M501.135 102.619C501.135 100.948 500.299 100.53 499.463 100.112C499.045 100.112 498.209 100.53 498.209 101.365C498.209 100.948 499.045 100.948 499.045 100.948C499.463 100.948 500.299 101.365 500.299 102.201C500.299 103.036 499.463 103.872 498.209 103.872C496.955 103.872 496.119 103.036 496.119 101.783C496.119 98.8589 499.463 98.0234 500.717 98.0234C505.315 98.0234 509.077 102.619 509.077 109.303C509.077 111.809 509.077 122.253 509.077 133.533L500.717 139.381C501.135 123.089 501.135 103.036 501.135 102.619Z" fill="#B38D56" fill-opacity="0.2"/>
<path d="M529.558 102.617C531.23 102.617 534.156 103.453 534.156 106.377C534.156 107.63 533.32 108.466 532.066 108.466C530.812 108.466 529.976 107.63 529.976 106.795C529.976 105.959 530.394 105.541 531.23 105.541C531.648 105.541 532.066 105.541 532.066 105.959C532.066 105.124 531.23 104.706 530.812 104.706C529.976 104.706 529.14 105.541 529.14 107.212C529.14 107.63 529.14 112.643 529.14 119.327L520.78 125.176C520.78 119.745 520.78 115.568 520.78 113.479C521.198 107.212 524.96 102.617 529.558 102.617Z" fill="#B38D56" fill-opacity="0.2"/>
<path d="M519.528 97.6055C521.2 97.6055 524.126 98.441 524.126 101.365C524.126 102.619 523.29 103.454 522.036 103.454C520.782 103.454 519.946 102.619 519.946 101.783C519.946 100.948 520.364 100.53 521.2 100.53C521.618 100.53 522.036 100.53 522.036 100.948C522.036 100.112 521.2 99.6942 520.782 99.6942C519.946 99.6942 519.11 100.53 519.11 102.201C519.11 102.619 519.11 113.898 519.11 126.013L510.75 131.861C510.75 121 510.75 110.974 510.75 108.467C511.168 102.201 514.93 97.6055 519.528 97.6055Z" fill="#B38D56" fill-opacity="0.2"/>
<path d="M499.463 159.016C499.463 159.016 497.791 156.927 496.119 154.839L499.463 152.332C499.463 156.51 499.463 159.016 499.463 159.016Z" fill="#B38D56" fill-opacity="0.2"/>
<path d="M501.133 160.27C501.133 160.27 501.133 156.928 501.133 151.497L509.493 145.648C509.493 159.434 509.493 171.549 509.493 171.549L501.133 160.27Z" fill="#B38D56" fill-opacity="0.2"/>
<path d="M521.199 159.017C521.199 159.017 521.199 148.155 521.199 137.294L529.559 131.445V148.155C529.559 147.738 521.199 159.017 521.199 159.017Z" fill="#B38D56" fill-opacity="0.2"/>
<path d="M511.166 171.132C511.166 171.132 511.166 158.181 511.166 143.977L519.526 138.129C519.526 149.826 519.526 159.852 519.526 159.852C519.526 160.27 511.166 171.132 511.166 171.132Z" fill="#B38D56" fill-opacity="0.2"/>
<path d="M423.803 52.0692C422.967 51.2337 423.803 49.9805 423.803 49.9805C423.803 49.9805 424.221 51.2337 425.893 52.487L478.144 89.2494C479.816 90.5027 481.07 90.5027 481.07 90.5027C481.07 90.5027 480.234 91.3382 478.98 90.9204C479.816 91.7559 478.98 93.0092 478.98 93.0092C478.98 93.0092 478.562 91.7559 476.89 90.5027L424.639 53.7403C422.967 52.487 421.713 52.487 421.713 52.487C421.713 52.487 422.549 51.6515 423.803 52.0692Z" fill="#B38D56" fill-opacity="0.2"/>
<path d="M478.979 156.089C479.815 155.253 478.979 154 478.979 154C478.979 154 478.561 155.253 476.889 156.507L424.638 193.269C422.966 194.522 421.712 194.522 421.712 194.522C421.712 194.522 422.548 195.358 423.802 194.94C422.966 195.775 423.802 197.029 423.802 197.029C423.802 197.029 424.22 195.775 425.892 194.522L478.143 157.76C479.815 156.507 481.069 156.507 481.069 156.507C481.069 156.507 479.815 155.671 478.979 156.089Z" fill="#B38D56" fill-opacity="0.2"/>
<path d="M600.617 52.0692C601.453 51.2337 600.617 49.9805 600.617 49.9805C600.617 49.9805 600.199 51.2337 598.527 52.487L546.277 89.2494C544.605 90.5027 543.351 90.5027 543.351 90.5027C543.351 90.5027 544.187 91.3382 545.441 90.9204C544.605 91.7559 545.441 93.0092 545.441 93.0092C545.441 93.0092 545.859 91.7559 547.531 90.5027L599.781 53.7403C601.453 52.487 602.707 52.487 602.707 52.487C602.707 52.487 601.871 51.6515 600.617 52.0692Z" fill="#B38D56" fill-opacity="0.2"/>
<path d="M599.781 192.851C601.453 194.104 602.707 194.104 602.707 194.104C602.707 194.104 601.871 194.94 600.617 194.522C601.453 195.357 600.617 196.611 600.617 196.611C600.617 196.611 600.199 195.357 598.527 194.104L546.277 157.342C544.605 156.089 543.351 156.089 543.351 156.089C543.351 156.089 544.187 155.253 545.441 155.671C544.605 154.835 545.441 153.582 545.441 153.582C545.441 153.582 545.859 154.835 547.531 156.089" fill="#B38D56" fill-opacity="0.2"/>
<path d="M407.918 17.3945V25.7496L373.224 49.5616L369.462 44.1308L407.918 17.3945Z" fill="#B38D56" fill-opacity="0.2"/>
<path d="M369.044 3.18905C369.044 1.51803 368.208 1.10028 367.372 0.682523C366.954 0.682523 366.118 1.10028 366.118 1.93579C366.118 1.51803 366.954 1.51803 366.954 1.51803C367.372 1.51803 368.208 1.93579 368.208 2.7713C368.208 3.6068 367.372 4.44231 366.118 4.44231C364.864 4.44231 364.028 3.6068 364.028 2.35354C364.028 -0.570741 367.372 -1.40625 368.626 -1.40625C373.224 -1.40625 376.987 3.18905 376.987 9.87312C376.987 13.2152 376.987 25.7478 376.987 36.6094L368.626 42.458C369.044 35.3562 369.044 4.02456 369.044 3.18905Z" fill="#B38D56" fill-opacity="0.2"/>
<path d="M379.078 -1.4047C379.078 -3.07572 378.242 -3.49347 377.406 -3.91123C376.988 -3.91123 376.152 -3.49347 376.152 -2.65796C376.152 -3.07572 376.988 -3.07572 376.988 -3.07572C377.406 -3.07572 378.242 -2.65796 378.242 -1.82245C378.242 -0.986945 377.406 -0.151436 376.152 -0.151436C374.898 -0.151436 374.062 -0.986945 374.062 -2.24021C374.062 -5.16449 377.406 -6 378.66 -6C383.258 -6 387.02 -1.4047 387.02 5.27937C387.02 7.7859 387.02 18.2298 387.02 29.5091L378.66 35.3577C379.078 19.0653 379.078 -0.56919 379.078 -1.4047Z" fill="#B38D56" fill-opacity="0.2"/>
<path d="M407.501 -1.40625C409.173 -1.40625 412.099 -0.570741 412.099 2.35354C412.099 3.6068 411.263 4.44231 410.009 4.44231C408.755 4.44231 407.919 3.6068 407.919 2.7713C407.919 1.93579 408.337 1.51803 409.173 1.51803C409.591 1.51803 410.009 1.51803 410.009 1.93579C410.009 1.10028 409.173 0.682523 408.755 0.682523C407.919 0.682523 407.083 1.51803 407.083 3.18905C407.083 3.6068 407.083 8.61986 407.083 15.3039L398.723 21.1525C398.723 15.7217 398.723 11.5441 398.723 9.45537C399.141 3.18905 402.903 -1.40625 407.501 -1.40625Z" fill="#B38D56" fill-opacity="0.2"/>
<path d="M397.47 -6C399.142 -6 402.068 -5.16449 402.068 -2.24021C402.068 -0.986946 401.232 -0.151436 399.978 -0.151436C398.724 -0.151436 397.888 -0.986945 397.888 -1.82245C397.888 -2.65796 398.306 -3.07572 399.142 -3.07572C399.56 -3.07572 399.978 -3.07572 399.978 -2.65796C399.978 -3.49347 399.142 -3.91123 398.724 -3.91123C397.888 -3.91123 397.052 -3.07572 397.052 -1.4047C397.052 -0.986945 397.052 10.2924 397.052 22.4073L388.692 28.2559C388.692 17.3943 388.692 7.36814 388.692 4.86162C389.11 -1.4047 392.872 -6 397.47 -6Z" fill="#B38D56" fill-opacity="0.2"/>
<path d="M377.406 55.4106C377.406 55.4106 375.734 53.3219 374.062 51.2331L377.406 48.7266C377.406 52.4864 377.406 55.4106 377.406 55.4106Z" fill="#B38D56" fill-opacity="0.2"/>
<path d="M379.075 56.2464C379.075 56.2464 379.075 52.9044 379.075 47.4736L387.435 41.625C387.435 55.4109 387.435 67.5258 387.435 67.5258L379.075 56.2464Z" fill="#B38D56" fill-opacity="0.2"/>
<path d="M399.141 55.4116C399.141 55.4116 399.141 44.55 399.141 33.6884L407.501 27.8398V44.55C407.501 44.1323 399.141 55.4116 399.141 55.4116Z" fill="#B38D56" fill-opacity="0.2"/>
<path d="M389.108 67.5261C389.108 67.5261 389.108 54.5757 389.108 40.372L397.468 34.5234C397.468 46.2206 397.468 56.2467 397.468 56.2467C397.886 56.2467 389.108 67.5261 389.108 67.5261Z" fill="#B38D56" fill-opacity="0.2"/>
<path d="M529.558 328.625V336.98L495.282 360.792L491.102 355.361L529.558 328.625Z" fill="#B38D56" fill-opacity="0.2"/>
<path d="M491.102 314.838C491.102 313.166 490.266 312.749 489.43 312.331C489.012 312.331 488.176 312.749 488.176 313.584C488.176 313.166 489.012 313.166 489.012 313.166C489.43 313.166 490.266 313.584 490.266 314.42C490.266 315.255 489.43 316.091 488.176 316.091C486.922 316.091 486.086 315.255 486.086 314.002C486.086 311.078 489.43 310.242 490.684 310.242C495.282 310.242 499.044 314.838 499.044 321.522C499.044 324.864 499.044 337.396 499.044 348.258L490.684 354.106C491.102 346.587 491.102 315.673 491.102 314.838Z" fill="#B38D56" fill-opacity="0.2"/>
<path d="M501.135 309.826C501.135 308.155 500.299 307.737 499.463 307.319C499.045 307.319 498.209 307.737 498.209 308.573C498.209 308.155 499.045 308.155 499.045 308.155C499.463 308.155 500.299 308.573 500.299 309.408C500.299 310.244 499.463 311.079 498.209 311.079C496.955 311.079 496.119 310.244 496.119 308.99C496.119 306.066 499.463 305.23 500.717 305.23C505.316 305.23 509.078 309.826 509.078 316.51C509.078 319.016 509.078 329.46 509.078 340.74L500.717 346.588C501.135 330.713 501.135 310.661 501.135 309.826Z" fill="#B38D56" fill-opacity="0.2"/>
<path d="M529.559 309.824C531.231 309.824 534.157 310.66 534.157 313.584C534.157 314.837 533.321 315.673 532.067 315.673C530.813 315.673 529.977 314.837 529.977 314.002C529.977 313.166 530.395 312.749 531.231 312.749C531.649 312.749 532.067 312.749 532.067 313.166C532.067 312.331 531.231 311.913 530.813 311.913C529.977 311.913 529.141 312.748 529.141 314.42C529.141 314.837 529.141 319.85 529.141 326.534L520.781 332.383C520.781 326.952 520.781 322.775 520.781 320.686C521.199 314.42 524.961 309.824 529.559 309.824Z" fill="#B38D56" fill-opacity="0.2"/>
<path d="M519.528 305.23C521.2 305.23 524.126 306.066 524.126 308.99C524.126 310.244 523.29 311.079 522.036 311.079C520.782 311.079 519.946 310.244 519.946 309.408C519.946 308.573 520.364 308.155 521.2 308.155C521.618 308.155 522.036 308.155 522.036 308.573C522.036 307.737 521.2 307.319 520.782 307.319C519.946 307.319 519.11 308.155 519.11 309.826C519.11 310.244 519.11 321.523 519.11 333.638L510.75 339.486C510.75 328.625 510.75 318.599 510.75 316.092C511.168 309.826 514.93 305.23 519.528 305.23Z" fill="#B38D56" fill-opacity="0.2"/>
<path d="M499.463 366.641C499.463 366.641 497.791 364.552 496.119 362.464L499.463 359.957C499.463 363.717 499.463 366.641 499.463 366.641Z" fill="#B38D56" fill-opacity="0.2"/>
<path d="M501.133 367.477C501.133 367.477 501.133 364.135 501.133 358.704L509.493 352.855C509.493 366.641 509.493 378.756 509.493 378.756L501.133 367.477Z" fill="#B38D56" fill-opacity="0.2"/>
<path d="M521.199 366.642C521.199 366.642 521.199 355.781 521.199 344.919L529.559 339.07V355.781C529.559 355.363 521.199 366.642 521.199 366.642Z" fill="#B38D56" fill-opacity="0.2"/>
<path d="M511.166 378.757C511.166 378.757 511.166 365.806 511.166 351.602L519.526 345.754C519.526 357.451 519.526 367.477 519.526 367.477L511.166 378.757Z" fill="#B38D56" fill-opacity="0.2"/>
<path d="M423.802 259.694C422.966 258.859 423.802 257.605 423.802 257.605C423.802 257.605 424.22 258.859 425.892 260.112L478.143 296.874C479.815 298.128 481.069 298.128 481.069 298.128C481.069 298.128 480.233 298.963 478.979 298.545C479.815 299.381 478.979 300.634 478.979 300.634C478.979 300.634 478.561 299.381 476.889 298.128L424.638 261.365C422.966 260.112 421.712 260.112 421.712 260.112C421.712 260.112 422.548 259.276 423.802 259.694Z" fill="#B38D56" fill-opacity="0.2"/>
<path d="M478.978 363.714C479.814 362.878 478.978 361.625 478.978 361.625C478.978 361.625 478.56 362.878 476.888 364.132L424.637 400.894C422.965 402.147 421.711 402.147 421.711 402.147C421.711 402.147 422.547 402.983 423.801 402.565C422.965 403.4 423.801 404.654 423.801 404.654C423.801 404.654 424.219 403.4 425.891 402.147L478.142 365.385C479.814 364.132 481.068 364.132 481.068 364.132C481.068 364.132 479.814 363.296 478.978 363.714Z" fill="#B38D56" fill-opacity="0.2"/>
<path d="M600.616 259.694C601.452 258.859 600.616 257.605 600.616 257.605C600.616 257.605 600.198 258.859 598.526 260.112L546.276 296.874C544.604 298.128 543.35 298.128 543.35 298.128C543.35 298.128 544.186 298.963 545.44 298.545C544.604 299.381 545.44 300.634 545.44 300.634C545.44 300.634 545.858 299.381 547.53 298.128L599.78 261.365C601.452 260.112 602.706 260.112 602.706 260.112C602.706 260.112 601.87 259.276 600.616 259.694Z" fill="#B38D56" fill-opacity="0.2"/>
<path d="M599.78 400.476C601.452 401.729 602.706 401.729 602.706 401.729C602.706 401.729 601.87 402.565 600.616 402.147C601.452 402.982 600.616 404.236 600.616 404.236C600.616 404.236 600.198 402.982 598.526 401.729L546.276 364.967C544.604 363.714 543.35 363.714 543.35 363.714C543.35 363.714 544.186 362.878 545.44 363.296C544.604 362.46 545.44 361.207 545.44 361.207C545.44 361.207 545.858 362.46 547.53 363.714" fill="#B38D56" fill-opacity="0.2"/>
<path d="M407.917 225.02V233.375L373.223 257.187L369.461 251.756L407.917 225.02Z" fill="#B38D56" fill-opacity="0.2"/>
<path d="M369.043 210.814C369.043 209.143 368.207 208.725 367.371 208.308C366.953 208.308 366.117 208.725 366.117 209.561C366.117 209.143 366.953 209.143 366.953 209.143C367.371 209.143 368.207 209.561 368.207 210.396C368.207 211.232 367.371 212.067 366.117 212.067C364.863 212.067 364.027 211.232 364.027 209.979C364.027 207.054 367.371 206.219 368.625 206.219C373.223 206.219 376.986 210.814 376.986 217.498C376.986 220.84 376.986 233.373 376.986 244.234L368.625 250.083C369.043 242.563 369.043 211.65 369.043 210.814Z" fill="#B38D56" fill-opacity="0.2"/>
<path d="M379.077 206.22C379.077 204.549 378.241 204.132 377.405 203.714C376.987 203.714 376.151 204.132 376.151 204.967C376.151 204.549 376.987 204.549 376.987 204.549C377.405 204.549 378.241 204.967 378.241 205.803C378.241 206.638 377.405 207.474 376.151 207.474C374.897 207.474 374.061 206.638 374.061 205.385C374.061 202.46 377.405 201.625 378.659 201.625C383.257 201.625 387.019 206.22 387.019 212.904C387.019 215.411 387.019 225.855 387.019 237.134L378.659 242.983C379.077 226.69 379.077 206.638 379.077 206.22Z" fill="#B38D56" fill-opacity="0.2"/>
<path d="M407.5 206.219C409.172 206.219 412.098 207.054 412.098 209.979C412.098 211.232 411.262 212.067 410.008 212.067C408.754 212.067 407.918 211.232 407.918 210.396C407.918 209.561 408.336 209.143 409.172 209.143C409.59 209.143 410.008 209.143 410.008 209.561C410.008 208.725 409.172 208.308 408.754 208.308C407.918 208.308 407.082 209.143 407.082 210.814C407.082 211.232 407.082 216.245 407.082 222.929L398.722 228.778C398.722 223.347 398.722 219.169 398.722 217.08C399.14 210.814 402.902 206.219 407.5 206.219Z" fill="#B38D56" fill-opacity="0.2"/>
<path d="M397.469 201.625C399.141 201.625 402.067 202.46 402.067 205.385C402.067 206.638 401.231 207.474 399.977 207.474C398.723 207.474 397.887 206.638 397.887 205.803C397.887 204.967 398.305 204.549 399.141 204.549C399.559 204.549 399.977 204.549 399.977 204.967C399.977 204.132 399.141 203.714 398.723 203.714C397.887 203.714 397.051 204.549 397.051 206.22C397.051 206.638 397.051 217.917 397.051 230.032L388.691 235.881C388.691 225.019 388.691 214.993 388.691 212.487C389.109 206.22 392.871 201.625 397.469 201.625Z" fill="#B38D56" fill-opacity="0.2"/>
<path d="M377.405 262.618C377.405 262.618 375.733 260.529 374.061 258.44L377.405 255.934C377.405 260.111 377.405 262.618 377.405 262.618Z" fill="#B38D56" fill-opacity="0.2"/>
<path d="M379.074 263.871C379.074 263.871 379.074 260.529 379.074 255.099L387.434 249.25C387.434 263.036 387.434 275.151 387.434 275.151L379.074 263.871Z" fill="#B38D56" fill-opacity="0.2"/>
<path d="M399.14 262.619C399.14 262.619 399.14 251.757 399.14 240.895L407.5 235.047V251.757L399.14 262.619Z" fill="#B38D56" fill-opacity="0.2"/>
<path d="M389.107 275.151C389.107 275.151 389.107 262.201 389.107 247.997L397.467 242.148C397.467 253.846 397.467 263.872 397.467 263.872C397.885 263.872 389.107 275.151 389.107 275.151Z" fill="#B38D56" fill-opacity="0.2"/>
<path d="M529.558 536.25V544.605L495.282 568.417L491.102 562.986L529.558 536.25Z" fill="#B38D56" fill-opacity="0.2"/>
<path d="M491.102 522.045C491.102 520.373 490.266 519.956 489.43 519.538C489.012 519.538 488.176 519.956 488.176 520.791C488.176 520.373 489.012 520.373 489.012 520.373C489.43 520.373 490.266 520.791 490.266 521.627C490.266 522.462 489.43 523.298 488.176 523.298C486.922 523.298 486.086 522.462 486.086 521.209C486.086 518.285 489.43 517.449 490.684 517.449C495.282 517.449 499.044 522.045 499.044 528.729C499.044 532.071 499.044 544.603 499.044 555.465L490.684 561.313C491.102 554.212 491.102 522.88 491.102 522.045Z" fill="#B38D56" fill-opacity="0.2"/>
<path d="M501.135 517.451C501.135 515.78 500.299 515.362 499.463 514.944C499.045 514.944 498.209 515.362 498.209 516.198C498.209 515.78 499.045 515.78 499.045 515.78C499.463 515.78 500.299 516.198 500.299 517.033C500.299 517.869 499.463 518.704 498.209 518.704C496.955 518.704 496.119 517.869 496.119 516.615C496.119 513.691 499.463 512.855 500.717 512.855C505.316 512.855 509.078 517.451 509.078 524.135C509.078 526.641 509.078 537.085 509.078 548.365L500.717 554.213C501.135 538.339 501.135 518.286 501.135 517.451Z" fill="#B38D56" fill-opacity="0.2"/>
<path d="M529.559 517.449C531.231 517.449 534.157 518.285 534.157 521.209C534.157 522.462 533.321 523.298 532.067 523.298C530.813 523.298 529.977 522.462 529.977 521.627C529.977 520.791 530.395 520.373 531.231 520.373C531.649 520.373 532.067 520.373 532.067 520.791C532.067 519.956 531.231 519.538 530.813 519.538C529.977 519.538 529.141 520.373 529.141 522.045C529.141 522.462 529.141 527.475 529.141 534.159L520.781 540.008C520.781 534.577 520.781 530.4 520.781 528.311C521.199 522.045 524.961 517.449 529.559 517.449Z" fill="#B38D56" fill-opacity="0.2"/>
<path d="M519.528 512.855C521.2 512.855 524.126 513.691 524.126 516.615C524.126 517.869 523.29 518.704 522.036 518.704C520.782 518.704 519.946 517.869 519.946 517.033C519.946 516.198 520.364 515.78 521.2 515.78C521.618 515.78 522.036 515.78 522.036 516.198C522.036 515.362 521.2 514.944 520.782 514.944C519.946 514.944 519.11 515.78 519.11 517.451C519.11 517.869 519.11 529.148 519.11 541.263L510.75 547.111C510.75 536.25 510.75 526.224 510.75 523.717C511.168 517.451 514.93 512.855 519.528 512.855Z" fill="#B38D56" fill-opacity="0.2"/>
<path d="M499.463 574.266C499.463 574.266 497.791 572.177 496.119 570.089L499.463 567.582C499.463 571.342 499.463 574.266 499.463 574.266Z" fill="#B38D56" fill-opacity="0.2"/>
<path d="M501.133 575.102C501.133 575.102 501.133 571.76 501.133 566.329L509.493 560.48C509.493 574.266 509.493 586.381 509.493 586.381L501.133 575.102Z" fill="#B38D56" fill-opacity="0.2"/>
<path d="M521.199 574.267C521.199 574.267 521.199 563.405 521.199 552.544L529.559 546.695V563.406C529.559 562.988 521.199 574.267 521.199 574.267Z" fill="#B38D56" fill-opacity="0.2"/>
<path d="M511.166 586.382C511.166 586.382 511.166 573.431 511.166 559.228L519.526 553.379C519.526 565.076 519.526 575.102 519.526 575.102L511.166 586.382Z" fill="#B38D56" fill-opacity="0.2"/>
<path d="M423.802 467.319C422.966 466.484 423.802 465.23 423.802 465.23C423.802 465.23 424.22 466.484 425.892 467.737L478.143 504.499C479.815 505.753 481.069 505.753 481.069 505.753C481.069 505.753 480.233 506.588 478.979 506.17C479.815 507.006 478.979 508.259 478.979 508.259C478.979 508.259 478.561 507.006 476.889 505.753L424.638 468.99C422.966 467.737 421.712 467.737 421.712 467.737C421.712 467.737 422.548 466.901 423.802 467.319Z" fill="#B38D56" fill-opacity="0.2"/>
<path d="M478.978 571.339C479.814 570.503 478.978 569.25 478.978 569.25C478.978 569.25 478.56 570.503 476.888 571.757L424.637 608.519C422.965 609.772 421.711 609.772 421.711 609.772C421.711 609.772 422.547 610.608 423.801 610.19C422.965 611.025 423.801 612.279 423.801 612.279C423.801 612.279 424.219 611.025 425.891 609.772L478.142 573.01C479.814 571.757 481.068 571.757 481.068 571.757C481.068 571.757 479.814 570.921 478.978 571.339Z" fill="#B38D56" fill-opacity="0.2"/>
<path d="M600.616 467.319C601.452 466.484 600.616 465.23 600.616 465.23C600.616 465.23 600.198 466.484 598.526 467.737L546.276 504.499C544.604 505.753 543.35 505.753 543.35 505.753C543.35 505.753 544.186 506.588 545.44 506.17C544.604 507.006 545.44 508.259 545.44 508.259C545.44 508.259 545.858 507.006 547.53 505.753L599.78 468.99C601.452 467.737 602.706 467.737 602.706 467.737C602.706 467.737 601.87 466.901 600.616 467.319Z" fill="#B38D56" fill-opacity="0.2"/>
<path d="M599.78 608.101C601.452 609.354 602.706 609.354 602.706 609.354C602.706 609.354 601.87 610.19 600.616 609.772C601.452 610.607 600.616 611.861 600.616 611.861C600.616 611.861 600.198 610.607 598.526 609.354L546.276 572.592C544.604 571.339 543.35 571.339 543.35 571.339C543.35 571.339 544.186 570.503 545.44 570.921C544.604 570.085 545.44 568.832 545.44 568.832C545.44 568.832 545.858 570.085 547.53 571.339" fill="#B38D56" fill-opacity="0.2"/>
<path d="M407.917 432.227V440.582L373.223 464.811L369.461 459.381L407.917 432.227Z" fill="#B38D56" fill-opacity="0.2"/>
<path d="M369.043 418.439C369.043 416.768 368.207 416.35 367.371 415.933C366.953 415.933 366.117 416.35 366.117 417.186C366.117 416.768 366.953 416.768 366.953 416.768C367.371 416.768 368.207 417.186 368.207 418.021C368.207 418.857 367.371 419.692 366.117 419.692C364.863 419.692 364.027 418.857 364.027 417.604C364.027 414.679 367.371 413.844 368.625 413.844C373.223 413.844 376.986 418.439 376.986 425.123C376.986 428.465 376.986 440.998 376.986 451.859L368.625 457.708C369.043 450.188 369.043 419.275 369.043 418.439Z" fill="#B38D56" fill-opacity="0.2"/>
<path d="M379.077 413.845C379.077 412.174 378.241 411.757 377.405 411.339C376.987 411.339 376.151 411.757 376.151 412.592C376.151 412.174 376.987 412.174 376.987 412.174C377.405 412.174 378.241 412.592 378.241 413.428C378.241 414.263 377.405 415.099 376.151 415.099C374.897 415.099 374.061 414.263 374.061 413.01C374.061 410.086 377.405 409.25 378.659 409.25C383.257 409.25 387.019 413.845 387.019 420.529C387.019 423.036 387.019 433.48 387.019 444.759L378.659 450.608C379.077 434.315 379.077 414.263 379.077 413.845Z" fill="#B38D56" fill-opacity="0.2"/>
<path d="M407.5 413.844C409.172 413.844 412.098 414.679 412.098 417.604C412.098 418.857 411.262 419.692 410.008 419.692C408.754 419.692 407.918 418.857 407.918 418.021C407.918 417.186 408.336 416.768 409.172 416.768C409.59 416.768 410.008 416.768 410.008 417.186C410.008 416.35 409.172 415.933 408.754 415.933C407.918 415.933 407.082 416.768 407.082 418.439C407.082 418.857 407.082 423.87 407.082 430.554L398.722 436.402C398.722 430.972 398.722 426.794 398.722 424.705C399.14 418.439 402.902 413.844 407.5 413.844Z" fill="#B38D56" fill-opacity="0.2"/>
<path d="M397.469 409.25C399.141 409.25 402.067 410.086 402.067 413.01C402.067 414.263 401.231 415.099 399.977 415.099C398.723 415.099 397.887 414.263 397.887 413.428C397.887 412.592 398.305 412.174 399.141 412.174C399.559 412.174 399.977 412.174 399.977 412.592C399.977 411.757 399.141 411.339 398.723 411.339C397.887 411.339 397.051 412.174 397.051 413.845C397.051 414.263 397.051 425.542 397.051 437.657L388.691 443.506C388.691 432.644 388.691 422.618 388.691 420.112C389.109 413.845 392.871 409.25 397.469 409.25Z" fill="#B38D56" fill-opacity="0.2"/>
<path d="M377.405 470.243C377.405 470.243 375.733 468.154 374.061 466.065L377.405 463.559C377.405 467.736 377.405 470.243 377.405 470.243Z" fill="#B38D56" fill-opacity="0.2"/>
<path d="M379.074 471.496C379.074 471.496 379.074 468.154 379.074 462.724L387.434 456.875C387.434 470.661 387.434 482.776 387.434 482.776L379.074 471.496Z" fill="#B38D56" fill-opacity="0.2"/>
<path d="M399.14 470.244C399.14 470.244 399.14 459.382 399.14 448.52L407.5 442.672V459.382L399.14 470.244Z" fill="#B38D56" fill-opacity="0.2"/>
<path d="M389.107 482.358C389.107 482.358 389.107 469.408 389.107 455.204L397.467 449.355C397.467 461.053 397.467 471.079 397.467 471.079C397.885 471.496 389.107 482.358 389.107 482.358Z" fill="#B38D56" fill-opacity="0.2"/>
<path d="M285.859 121V129.355L251.583 153.585L247.403 148.154L285.859 121Z" fill="#B38D56" fill-opacity="0.2"/>
<path d="M247.402 107.212C247.402 105.541 246.566 105.124 245.73 104.706C245.312 104.706 244.476 105.124 244.476 105.959C244.476 105.541 245.312 105.541 245.312 105.541C245.73 105.541 246.566 105.959 246.566 106.795C246.566 107.63 245.73 108.466 244.476 108.466C243.222 108.466 242.386 107.63 242.386 106.377C242.386 103.453 245.73 102.617 246.984 102.617C251.582 102.617 255.344 107.212 255.344 113.897C255.344 117.239 255.344 129.771 255.344 140.633L246.984 146.481C246.984 138.962 246.984 108.048 247.402 107.212Z" fill="#B38D56" fill-opacity="0.2"/>
<path d="M257.435 102.619C257.435 100.948 256.599 100.53 255.763 100.112C255.345 100.112 254.509 100.53 254.509 101.365C254.509 100.948 255.345 100.948 255.345 100.948C255.763 100.948 256.599 101.365 256.599 102.201C256.599 103.036 255.763 103.872 254.509 103.872C253.255 103.872 252.419 103.036 252.419 101.783C252.419 98.8589 255.763 98.0234 257.017 98.0234C261.615 98.0234 265.377 102.619 265.377 109.303C265.377 111.809 265.377 122.253 265.377 133.533L257.017 139.381C257.017 123.089 257.017 103.036 257.435 102.619Z" fill="#B38D56" fill-opacity="0.2"/>
<path d="M285.858 102.617C287.53 102.617 290.456 103.453 290.456 106.377C290.456 107.63 289.62 108.466 288.366 108.466C287.112 108.466 286.276 107.63 286.276 106.795C286.276 105.959 286.694 105.541 287.53 105.541C287.948 105.541 288.366 105.541 288.366 105.959C288.366 105.124 287.53 104.706 287.112 104.706C286.276 104.706 285.44 105.541 285.44 107.212C285.44 107.63 285.44 112.643 285.44 119.327L277.08 125.176C277.08 119.745 277.08 115.568 277.08 113.479C277.498 107.212 280.842 102.617 285.858 102.617Z" fill="#B38D56" fill-opacity="0.2"/>
<path d="M275.827 97.6055C277.499 97.6055 280.425 98.441 280.425 101.365C280.425 102.619 279.589 103.454 278.335 103.454C277.081 103.454 276.245 102.619 276.245 101.783C276.245 100.948 276.663 100.53 277.499 100.53C277.917 100.53 278.335 100.53 278.335 100.948C278.335 100.112 277.499 99.6942 277.081 99.6942C276.245 99.6942 275.409 100.53 275.409 102.201C275.409 102.619 275.409 113.898 275.409 126.013L267.049 131.861C267.049 121 267.049 110.974 267.049 108.467C267.467 102.201 270.811 97.6055 275.827 97.6055Z" fill="#B38D56" fill-opacity="0.2"/>
<path d="M255.763 159.016C255.763 159.016 254.091 156.927 252.419 154.839L255.763 152.332C255.763 156.51 255.763 159.016 255.763 159.016Z" fill="#B38D56" fill-opacity="0.2"/>
<path d="M257.016 160.27C257.016 160.27 257.016 156.928 257.016 151.497L265.376 145.648C265.376 159.434 265.376 171.549 265.376 171.549L257.016 160.27Z" fill="#B38D56" fill-opacity="0.2"/>
<path d="M277.499 159.017C277.499 159.017 277.499 148.155 277.499 137.294L285.859 131.445V148.155C285.859 147.738 277.499 159.017 277.499 159.017Z" fill="#B38D56" fill-opacity="0.2"/>
<path d="M267.466 171.132C267.466 171.132 267.466 158.181 267.466 143.977L275.826 138.129C275.826 149.826 275.826 159.852 275.826 159.852C275.826 160.27 267.466 171.132 267.466 171.132Z" fill="#B38D56" fill-opacity="0.2"/>
<path d="M179.686 52.0692C178.85 51.2337 179.686 49.9805 179.686 49.9805C179.686 49.9805 180.104 51.2337 181.776 52.487L234.026 89.2494C235.698 90.5027 236.952 90.5027 236.952 90.5027C236.952 90.5027 236.116 91.3382 234.862 90.9204C235.698 91.7559 234.862 93.0092 234.862 93.0092C234.862 93.0092 234.444 91.7559 232.772 90.5027L180.522 53.7403C178.85 52.487 177.596 52.487 177.596 52.487C177.596 52.487 178.85 51.6515 179.686 52.0692Z" fill="#B38D56" fill-opacity="0.2"/>
<path d="M234.863 156.089C235.699 155.253 234.863 154 234.863 154C234.863 154 234.445 155.253 232.773 156.507L180.522 193.269C178.85 194.522 177.596 194.522 177.596 194.522C177.596 194.522 178.432 195.358 179.686 194.94C178.85 195.775 179.686 197.029 179.686 197.029C179.686 197.029 180.104 195.775 181.776 194.522L234.027 157.76C235.699 156.507 236.953 156.507 236.953 156.507C236.953 156.507 236.117 155.671 234.863 156.089Z" fill="#B38D56" fill-opacity="0.2"/>
<path d="M356.921 52.0692C357.757 51.2337 356.921 49.9805 356.921 49.9805C356.921 49.9805 356.503 51.2337 354.831 52.487L302.58 89.2494C300.908 90.5027 299.654 90.5027 299.654 90.5027C299.654 90.5027 300.49 91.3382 301.744 90.9204C300.908 91.7559 301.744 93.0092 301.744 93.0092C301.744 93.0092 302.162 91.7559 303.834 90.5027L356.085 53.7403C357.757 52.487 359.011 52.487 359.011 52.487C359.011 52.487 358.175 51.6515 356.921 52.0692Z" fill="#B38D56" fill-opacity="0.2"/>
<path d="M356.085 192.851C357.757 194.104 359.011 194.104 359.011 194.104C359.011 194.104 358.175 194.94 356.921 194.522C357.757 195.357 356.921 196.611 356.921 196.611C356.921 196.611 356.503 195.357 354.831 194.104L302.58 157.342C300.908 156.089 299.654 156.089 299.654 156.089C299.654 156.089 300.49 155.253 301.744 155.671C300.908 154.835 301.744 153.582 301.744 153.582C301.744 153.582 302.162 154.835 303.834 156.089" fill="#B38D56" fill-opacity="0.2"/>
<path d="M163.802 17.3945V25.7496L129.526 49.5616L125.346 44.1308L163.802 17.3945Z" fill="#B38D56" fill-opacity="0.2"/>
<path d="M125.346 3.18905C125.346 1.51803 124.51 1.10028 123.674 0.682523C123.256 0.682523 122.42 1.10028 122.42 1.93579C122.42 1.51803 123.256 1.51803 123.256 1.51803C123.674 1.51803 124.51 1.93579 124.51 2.7713C124.51 3.6068 123.674 4.44231 122.42 4.44231C121.166 4.44231 120.33 3.6068 120.33 2.35354C120.33 -0.570741 123.674 -1.40625 124.928 -1.40625C129.526 -1.40625 133.288 3.18905 133.288 9.87312C133.288 13.2152 133.288 25.7478 133.288 36.6094L124.928 42.458C125.346 35.3562 125.346 4.02456 125.346 3.18905Z" fill="#B38D56" fill-opacity="0.2"/>
<path d="M135.379 -1.4047C135.379 -3.07572 134.543 -3.49347 133.707 -3.91123C133.289 -3.91123 132.453 -3.49347 132.453 -2.65796C132.453 -3.07572 133.289 -3.07572 133.289 -3.07572C133.707 -3.07572 134.543 -2.65796 134.543 -1.82245C134.543 -0.986945 133.707 -0.151436 132.453 -0.151436C131.199 -0.151436 130.363 -0.986945 130.363 -2.24021C130.363 -5.16449 133.707 -6 134.961 -6C139.559 -6 143.321 -1.4047 143.321 5.27937C143.321 7.7859 143.321 18.2298 143.321 29.5091L134.961 35.3577C135.379 19.0653 135.379 -0.56919 135.379 -1.4047Z" fill="#B38D56" fill-opacity="0.2"/>
<path d="M163.802 -1.40625C165.474 -1.40625 168.4 -0.570741 168.4 2.35354C168.4 3.6068 167.564 4.44231 166.31 4.44231C165.056 4.44231 164.22 3.6068 164.22 2.7713C164.22 1.93579 164.638 1.51803 165.474 1.51803C165.892 1.51803 166.31 1.51803 166.31 1.93579C166.31 1.10028 165.474 0.682523 165.056 0.682523C164.22 0.682523 163.384 1.51803 163.384 3.18905C163.384 3.6068 163.384 8.61986 163.384 15.3039L155.024 21.1525C155.024 15.7217 155.024 11.5441 155.024 9.45537C155.442 3.18905 159.204 -1.40625 163.802 -1.40625Z" fill="#B38D56" fill-opacity="0.2"/>
<path d="M153.771 -6C155.444 -6 158.37 -5.16449 158.37 -2.24021C158.37 -0.986946 157.534 -0.151436 156.28 -0.151436C155.025 -0.151436 154.189 -0.986945 154.189 -1.82245C154.189 -2.65796 154.608 -3.07572 155.444 -3.07572C155.862 -3.07572 156.28 -3.07572 156.28 -2.65796C156.28 -3.49347 155.444 -3.91123 155.026 -3.91123C154.19 -3.91123 153.353 -3.07572 153.353 -1.4047C153.353 -0.986945 153.353 10.2924 153.353 22.4073L144.993 28.2559C144.993 17.3943 144.993 7.36814 144.993 4.86162C145.411 -1.4047 149.173 -6 153.771 -6Z" fill="#B38D56" fill-opacity="0.2"/>
<path d="M133.707 55.4106C133.707 55.4106 132.035 53.3219 130.363 51.2331L133.707 48.7266C133.707 52.4864 133.707 55.4106 133.707 55.4106Z" fill="#B38D56" fill-opacity="0.2"/>
<path d="M135.376 56.2464C135.376 56.2464 135.376 52.9044 135.376 47.4736L143.737 41.625C143.737 55.4109 143.737 67.5258 143.737 67.5258L135.376 56.2464Z" fill="#B38D56" fill-opacity="0.2"/>
<path d="M155.443 55.4116C155.443 55.4116 155.443 44.55 155.443 33.6884L163.803 27.8398V44.55C163.803 44.1323 155.443 55.4116 155.443 55.4116Z" fill="#B38D56" fill-opacity="0.2"/>
<path d="M145.41 67.5261C145.41 67.5261 145.41 54.5757 145.41 40.372L153.77 34.5234C153.77 46.2206 153.77 56.2467 153.77 56.2467L145.41 67.5261Z" fill="#B38D56" fill-opacity="0.2"/>
<path d="M285.86 328.625V336.98L251.584 360.792L247.404 355.361L285.86 328.625Z" fill="#B38D56" fill-opacity="0.2"/>
<path d="M247.402 314.838C247.402 313.166 246.566 312.749 245.73 312.331C245.312 312.331 244.476 312.749 244.476 313.584C244.476 313.166 245.312 313.166 245.312 313.166C245.73 313.166 246.566 313.584 246.566 314.42C246.566 315.255 245.73 316.091 244.476 316.091C243.222 316.091 242.386 315.255 242.386 314.002C242.386 311.078 245.73 310.242 246.984 310.242C251.582 310.242 255.344 314.838 255.344 321.522C255.344 324.864 255.344 337.396 255.344 348.258L246.984 354.106C246.984 346.587 246.984 315.673 247.402 314.838Z" fill="#B38D56" fill-opacity="0.2"/>
<path d="M257.435 309.826C257.435 308.155 256.599 307.737 255.763 307.319C255.345 307.319 254.509 307.737 254.509 308.573C254.509 308.155 255.345 308.155 255.345 308.155C255.763 308.155 256.599 308.573 256.599 309.408C256.599 310.244 255.763 311.079 254.509 311.079C253.255 311.079 252.419 310.244 252.419 308.99C252.419 306.066 255.763 305.23 257.017 305.23C261.616 305.23 265.378 309.826 265.378 316.51C265.378 319.016 265.378 329.46 265.378 340.74L257.017 346.588C257.017 330.713 257.017 310.661 257.435 309.826Z" fill="#B38D56" fill-opacity="0.2"/>
<path d="M285.859 309.824C287.531 309.824 290.457 310.66 290.457 313.584C290.457 314.837 289.621 315.673 288.367 315.673C287.113 315.673 286.277 314.837 286.277 314.002C286.277 313.166 286.695 312.749 287.531 312.749C287.949 312.749 288.367 312.749 288.367 313.166C288.367 312.331 287.531 311.913 287.113 311.913C286.277 311.913 285.441 312.748 285.441 314.42C285.441 314.837 285.441 319.85 285.441 326.534L277.081 332.383C277.081 326.952 277.081 322.775 277.081 320.686C277.499 314.42 280.843 309.824 285.859 309.824Z" fill="#B38D56" fill-opacity="0.2"/>
<path d="M275.828 305.23C277.5 305.23 280.426 306.066 280.426 308.99C280.426 310.244 279.59 311.079 278.336 311.079C277.082 311.079 276.246 310.244 276.246 309.408C276.246 308.573 276.664 308.155 277.5 308.155C277.918 308.155 278.336 308.155 278.336 308.573C278.336 307.737 277.5 307.319 277.082 307.319C276.246 307.319 275.41 308.155 275.41 309.826C275.41 310.244 275.41 321.523 275.41 333.638L267.05 339.486C267.05 328.625 267.05 318.599 267.05 316.092C267.468 309.826 270.812 305.23 275.828 305.23Z" fill="#B38D56" fill-opacity="0.2"/>
<path d="M255.763 366.641C255.763 366.641 254.091 364.552 252.419 362.464L255.763 359.957C255.763 363.717 255.763 366.641 255.763 366.641Z" fill="#B38D56" fill-opacity="0.2"/>
<path d="M257.017 367.477C257.017 367.477 257.017 364.135 257.017 358.704L265.377 352.855C265.377 366.641 265.377 378.756 265.377 378.756L257.017 367.477Z" fill="#B38D56" fill-opacity="0.2"/>
<path d="M277.499 366.642C277.499 366.642 277.499 355.781 277.499 344.919L285.859 339.07V355.781C285.859 355.363 277.499 366.642 277.499 366.642Z" fill="#B38D56" fill-opacity="0.2"/>
<path d="M267.466 378.757C267.466 378.757 267.466 365.806 267.466 351.602L275.826 345.754C275.826 357.451 275.826 367.477 275.826 367.477L267.466 378.757Z" fill="#B38D56" fill-opacity="0.2"/>
<path d="M179.686 259.694C178.85 258.859 179.686 257.605 179.686 257.605C179.686 257.605 180.104 258.859 181.776 260.112L234.026 296.874C235.698 298.128 236.952 298.128 236.952 298.128C236.952 298.128 236.116 298.963 234.862 298.545C235.698 299.381 234.862 300.634 234.862 300.634C234.862 300.634 234.444 299.381 232.772 298.128L180.522 261.365C178.85 260.112 177.596 260.112 177.596 260.112C177.596 260.112 178.85 259.276 179.686 259.694Z" fill="#B38D56" fill-opacity="0.2"/>
<path d="M234.863 363.714C235.699 362.878 234.863 361.625 234.863 361.625C234.863 361.625 234.445 362.878 232.773 364.132L180.522 400.894C178.85 402.147 177.596 402.147 177.596 402.147C177.596 402.147 178.432 402.983 179.686 402.565C178.85 403.4 179.686 404.654 179.686 404.654C179.686 404.654 180.104 403.4 181.776 402.147L234.027 365.385C235.699 364.132 236.953 364.132 236.953 364.132C236.953 364.132 236.117 363.296 234.863 363.714Z" fill="#B38D56" fill-opacity="0.2"/>
<path d="M356.921 259.694C357.757 258.859 356.921 257.605 356.921 257.605C356.921 257.605 356.503 258.859 354.831 260.112L302.581 296.874C300.909 298.128 299.655 298.128 299.655 298.128C299.655 298.128 300.491 298.963 301.745 298.545C300.909 299.381 301.745 300.634 301.745 300.634C301.745 300.634 302.163 299.381 303.835 298.128L356.085 261.365C357.757 260.112 359.011 260.112 359.011 260.112C359.011 260.112 358.175 259.276 356.921 259.694Z" fill="#B38D56" fill-opacity="0.2"/>
<path d="M356.085 400.476C357.757 401.729 359.011 401.729 359.011 401.729C359.011 401.729 358.175 402.565 356.921 402.147C357.757 402.982 356.921 404.236 356.921 404.236C356.921 404.236 356.503 402.982 354.831 401.729L302.581 364.967C300.909 363.714 299.655 363.714 299.655 363.714C299.655 363.714 300.491 362.878 301.745 363.296C300.909 362.46 301.745 361.207 301.745 361.207C301.745 361.207 302.163 362.46 303.835 363.714" fill="#B38D56" fill-opacity="0.2"/>
<path d="M163.802 225.02V233.375L129.526 257.187L125.346 251.756L163.802 225.02Z" fill="#B38D56" fill-opacity="0.2"/>
<path d="M125.346 210.814C125.346 209.143 124.51 208.725 123.674 208.308C123.256 208.308 122.42 208.725 122.42 209.561C122.42 209.143 123.256 209.143 123.256 209.143C123.674 209.143 124.51 209.561 124.51 210.396C124.51 211.232 123.674 212.067 122.42 212.067C121.166 212.067 120.33 211.232 120.33 209.979C120.33 207.054 123.674 206.219 124.928 206.219C129.526 206.219 133.288 210.814 133.288 217.498C133.288 220.84 133.288 233.373 133.288 244.234L124.928 250.083C125.346 242.563 125.346 211.65 125.346 210.814Z" fill="#B38D56" fill-opacity="0.2"/>
<path d="M135.379 206.22C135.379 204.549 134.543 204.132 133.707 203.714C133.289 203.714 132.453 204.132 132.453 204.967C132.453 204.549 133.289 204.549 133.289 204.549C133.707 204.549 134.543 204.967 134.543 205.803C134.543 206.638 133.707 207.474 132.453 207.474C131.199 207.474 130.363 206.638 130.363 205.385C130.363 202.46 133.707 201.625 134.961 201.625C139.559 201.625 143.321 206.22 143.321 212.904C143.321 215.411 143.321 225.855 143.321 237.134L134.961 242.983C135.379 226.69 135.379 206.638 135.379 206.22Z" fill="#B38D56" fill-opacity="0.2"/>
<path d="M163.803 206.219C165.475 206.219 168.401 207.054 168.401 209.979C168.401 211.232 167.565 212.067 166.311 212.067C165.057 212.067 164.221 211.232 164.221 210.396C164.221 209.561 164.639 209.143 165.475 209.143C165.893 209.143 166.311 209.143 166.311 209.561C166.311 208.725 165.475 208.308 165.057 208.308C164.221 208.308 163.385 209.143 163.385 210.814C163.385 211.232 163.385 216.245 163.385 222.929L155.024 228.778C155.024 223.347 155.024 219.169 155.024 217.08C155.442 210.814 159.204 206.219 163.803 206.219Z" fill="#B38D56" fill-opacity="0.2"/>
<path d="M153.772 201.625C155.444 201.625 158.37 202.46 158.37 205.385C158.37 206.638 157.534 207.474 156.28 207.474C155.026 207.474 154.19 206.638 154.19 205.803C154.19 204.967 154.608 204.549 155.444 204.549C155.862 204.549 156.28 204.549 156.28 204.967C156.28 204.132 155.444 203.714 155.026 203.714C154.19 203.714 153.354 204.549 153.354 206.22C153.354 206.638 153.354 217.917 153.354 230.032L144.994 235.881C144.994 225.019 144.994 214.993 144.994 212.487C145.412 206.22 149.174 201.625 153.772 201.625Z" fill="#B38D56" fill-opacity="0.2"/>
<path d="M133.707 262.618C133.707 262.618 132.035 260.529 130.363 258.44L133.707 255.934C133.707 260.111 133.707 262.618 133.707 262.618Z" fill="#B38D56" fill-opacity="0.2"/>
<path d="M135.377 263.871C135.377 263.871 135.377 260.529 135.377 255.099L143.737 249.25C143.737 263.036 143.737 275.151 143.737 275.151L135.377 263.871Z" fill="#B38D56" fill-opacity="0.2"/>
<path d="M155.443 262.619C155.443 262.619 155.443 251.757 155.443 240.895L163.803 235.047V251.757L155.443 262.619Z" fill="#B38D56" fill-opacity="0.2"/>
<path d="M145.41 275.151C145.41 275.151 145.41 262.201 145.41 247.997L153.77 242.148C153.77 253.846 153.77 263.872 153.77 263.872L145.41 275.151Z" fill="#B38D56" fill-opacity="0.2"/>
<path d="M285.86 536.25V544.605L251.584 568.417L247.404 562.986L285.86 536.25Z" fill="#B38D56" fill-opacity="0.2"/>
<path d="M247.402 522.045C247.402 520.373 246.566 519.956 245.73 519.538C245.312 519.538 244.476 519.956 244.476 520.791C244.476 520.373 245.312 520.373 245.312 520.373C245.73 520.373 246.566 520.791 246.566 521.627C246.566 522.462 245.73 523.298 244.476 523.298C243.222 523.298 242.386 522.462 242.386 521.209C242.386 518.285 245.73 517.449 246.984 517.449C251.582 517.449 255.344 522.045 255.344 528.729C255.344 532.071 255.344 544.603 255.344 555.465L246.984 561.313C246.984 554.212 246.984 522.88 247.402 522.045Z" fill="#B38D56" fill-opacity="0.2"/>
<path d="M257.435 517.451C257.435 515.78 256.599 515.362 255.763 514.944C255.345 514.944 254.509 515.362 254.509 516.198C254.509 515.78 255.345 515.78 255.345 515.78C255.763 515.78 256.599 516.198 256.599 517.033C256.599 517.869 255.763 518.704 254.509 518.704C253.255 518.704 252.419 517.869 252.419 516.615C252.419 513.691 255.763 512.855 257.017 512.855C261.616 512.855 265.378 517.451 265.378 524.135C265.378 526.641 265.378 537.085 265.378 548.365L257.017 554.213C257.017 538.339 257.017 518.286 257.435 517.451Z" fill="#B38D56" fill-opacity="0.2"/>
<path d="M285.859 517.449C287.531 517.449 290.457 518.285 290.457 521.209C290.457 522.462 289.621 523.298 288.367 523.298C287.113 523.298 286.277 522.462 286.277 521.627C286.277 520.791 286.695 520.373 287.531 520.373C287.949 520.373 288.367 520.373 288.367 520.791C288.367 519.956 287.531 519.538 287.113 519.538C286.277 519.538 285.441 520.373 285.441 522.045C285.441 522.462 285.441 527.475 285.441 534.159L277.081 540.008C277.081 534.577 277.081 530.4 277.081 528.311C277.499 522.045 280.843 517.449 285.859 517.449Z" fill="#B38D56" fill-opacity="0.2"/>
<path d="M275.828 512.855C277.5 512.855 280.426 513.691 280.426 516.615C280.426 517.869 279.59 518.704 278.336 518.704C277.082 518.704 276.246 517.869 276.246 517.033C276.246 516.198 276.664 515.78 277.5 515.78C277.918 515.78 278.336 515.78 278.336 516.198C278.336 515.362 277.5 514.944 277.082 514.944C276.246 514.944 275.41 515.78 275.41 517.451C275.41 517.869 275.41 529.148 275.41 541.263L267.05 547.111C267.05 536.25 267.05 526.224 267.05 523.717C267.468 517.451 270.812 512.855 275.828 512.855Z" fill="#B38D56" fill-opacity="0.2"/>
<path d="M255.763 574.266C255.763 574.266 254.091 572.177 252.419 570.089L255.763 567.582C255.763 571.342 255.763 574.266 255.763 574.266Z" fill="#B38D56" fill-opacity="0.2"/>
<path d="M257.017 575.102C257.017 575.102 257.017 571.76 257.017 566.329L265.377 560.48C265.377 574.266 265.377 586.381 265.377 586.381L257.017 575.102Z" fill="#B38D56" fill-opacity="0.2"/>
<path d="M277.499 574.267C277.499 574.267 277.499 563.405 277.499 552.544L285.859 546.695V563.406C285.859 562.988 277.499 574.267 277.499 574.267Z" fill="#B38D56" fill-opacity="0.2"/>
<path d="M267.466 586.382C267.466 586.382 267.466 573.431 267.466 559.228L275.826 553.379C275.826 565.076 275.826 575.102 275.826 575.102L267.466 586.382Z" fill="#B38D56" fill-opacity="0.2"/>
<path d="M179.687 467.319C178.851 466.484 179.687 465.23 179.687 465.23C179.687 465.23 180.105 466.484 181.777 467.737L234.027 504.499C235.699 505.753 236.953 505.753 236.953 505.753C236.953 505.753 236.117 506.588 234.863 506.17C235.699 507.006 234.863 508.259 234.863 508.259C234.863 508.259 234.445 507.006 232.773 505.753L180.523 468.99C178.851 467.737 177.597 467.737 177.597 467.737C177.597 467.737 178.851 466.901 179.687 467.319Z" fill="#B38D56" fill-opacity="0.2"/>
<path d="M356.921 467.319C357.757 466.484 356.921 465.23 356.921 465.23C356.921 465.23 356.503 466.484 354.831 467.737L302.581 504.499C300.909 505.753 299.655 505.753 299.655 505.753C299.655 505.753 300.491 506.588 301.745 506.17C300.909 507.006 301.745 508.259 301.745 508.259C301.745 508.259 302.163 507.006 303.835 505.753L356.085 468.99C357.757 467.737 359.011 467.737 359.011 467.737C359.011 467.737 358.175 466.901 356.921 467.319Z" fill="#B38D56" fill-opacity="0.2"/>
<path d="M356.085 608.101C357.757 609.354 359.011 609.354 359.011 609.354C359.011 609.354 358.175 610.19 356.921 609.772C357.757 610.607 356.921 611.861 356.921 611.861C356.921 611.861 356.503 610.607 354.831 609.354L302.581 572.592C300.909 571.339 299.655 571.339 299.655 571.339C299.655 571.339 300.491 570.503 301.745 570.921C300.909 570.085 301.745 568.832 301.745 568.832C301.745 568.832 302.163 570.085 303.835 571.339" fill="#B38D56" fill-opacity="0.2"/>
<path d="M163.802 432.227V440.582L129.526 464.811L125.346 459.381L163.802 432.227Z" fill="#B38D56" fill-opacity="0.2"/>
<path d="M125.346 418.439C125.346 416.768 124.51 416.35 123.674 415.933C123.256 415.933 122.42 416.35 122.42 417.186C122.42 416.768 123.256 416.768 123.256 416.768C123.674 416.768 124.51 417.186 124.51 418.021C124.51 418.857 123.674 419.692 122.42 419.692C121.166 419.692 120.33 418.857 120.33 417.604C120.33 414.679 123.674 413.844 124.928 413.844C129.526 413.844 133.288 418.439 133.288 425.123C133.288 428.465 133.288 440.998 133.288 451.859L124.928 457.708C125.346 450.188 125.346 419.275 125.346 418.439Z" fill="#B38D56" fill-opacity="0.2"/>
<path d="M135.379 413.845C135.379 412.174 134.543 411.757 133.707 411.339C133.289 411.339 132.453 411.757 132.453 412.592C132.453 412.174 133.289 412.174 133.289 412.174C133.707 412.174 134.543 412.592 134.543 413.428C134.543 414.263 133.707 415.099 132.453 415.099C131.199 415.099 130.363 414.263 130.363 413.01C130.363 410.086 133.707 409.25 134.961 409.25C139.559 409.25 143.321 413.845 143.321 420.529C143.321 423.036 143.321 433.48 143.321 444.759L134.961 450.608C135.379 434.315 135.379 414.263 135.379 413.845Z" fill="#B38D56" fill-opacity="0.2"/>
<path d="M163.803 413.844C165.475 413.844 168.401 414.679 168.401 417.604C168.401 418.857 167.565 419.692 166.311 419.692C165.057 419.692 164.221 418.857 164.221 418.021C164.221 417.186 164.639 416.768 165.475 416.768C165.893 416.768 166.311 416.768 166.311 417.186C166.311 416.35 165.475 415.933 165.057 415.933C164.221 415.933 163.385 416.768 163.385 418.439C163.385 418.857 163.385 423.87 163.385 430.554L155.024 436.402C155.024 430.972 155.024 426.794 155.024 424.705C155.442 418.439 159.204 413.844 163.803 413.844Z" fill="#B38D56" fill-opacity="0.2"/>
<path d="M153.772 409.25C155.444 409.25 158.37 410.086 158.37 413.01C158.37 414.263 157.534 415.099 156.28 415.099C155.026 415.099 154.19 414.263 154.19 413.428C154.19 412.592 154.608 412.174 155.444 412.174C155.862 412.174 156.28 412.174 156.28 412.592C156.28 411.757 155.444 411.339 155.026 411.339C154.19 411.339 153.354 412.174 153.354 413.845C153.354 414.263 153.354 425.542 153.354 437.657L144.994 443.506C144.994 432.644 144.994 422.618 144.994 420.112C145.412 413.845 149.174 409.25 153.772 409.25Z" fill="#B38D56" fill-opacity="0.2"/>
<path d="M133.707 470.243C133.707 470.243 132.035 468.154 130.363 466.065L133.707 463.559C133.707 467.736 133.707 470.243 133.707 470.243Z" fill="#B38D56" fill-opacity="0.2"/>
<path d="M135.377 471.496C135.377 471.496 135.377 468.154 135.377 462.724L143.737 456.875C143.737 470.661 143.737 482.776 143.737 482.776L135.377 471.496Z" fill="#B38D56" fill-opacity="0.2"/>
<path d="M155.443 470.244C155.443 470.244 155.443 459.382 155.443 448.52L163.803 442.672V459.382L155.443 470.244Z" fill="#B38D56" fill-opacity="0.2"/>
<path d="M145.41 482.358C145.41 482.358 145.41 469.408 145.41 455.204L153.77 449.355C153.77 461.053 153.77 471.079 153.77 471.079C153.77 471.496 145.41 482.358 145.41 482.358Z" fill="#B38D56" fill-opacity="0.2"/>
<path d="M42.1634 121V129.355L7.88707 153.585L3.70703 148.154L42.1634 121Z" fill="#B38D56" fill-opacity="0.2"/>
<path d="M3.28971 107.212C3.28971 105.541 2.4537 105.124 1.61769 104.706C1.19969 104.706 0.363699 105.124 0.363699 105.959C0.363699 105.541 1.19969 105.541 1.19969 105.541C1.6177 105.541 2.45372 105.959 2.45372 106.795C2.45372 107.63 1.61771 108.466 0.363699 108.466C-0.890311 108.466 -1.72632 107.63 -1.72632 106.377C-1.72632 103.453 1.6177 102.617 2.87171 102.617C7.46975 102.617 11.2318 107.212 11.2318 113.897C11.2318 117.239 11.2318 129.771 11.2318 140.633L2.87171 146.481C3.28972 138.962 3.28971 108.048 3.28971 107.212Z" fill="#B38D56" fill-opacity="0.2"/>
<path d="M13.3229 102.619C13.3229 100.948 12.4869 100.53 11.6509 100.112C11.2329 100.112 10.3969 100.53 10.3969 101.365C10.3969 100.948 11.2329 100.948 11.2329 100.948C11.6509 100.948 12.4869 101.365 12.4869 102.201C12.4869 103.036 11.6509 103.872 10.3969 103.872C9.14289 103.872 8.30688 103.036 8.30688 101.783C8.30688 98.8589 11.6509 98.0234 12.9049 98.0234C17.503 98.0234 21.265 102.619 21.265 109.303C21.265 111.809 21.265 122.253 21.265 133.533L12.9049 139.381C13.3229 123.089 13.3229 103.036 13.3229 102.619Z" fill="#B38D56" fill-opacity="0.2"/>
<path d="M42.1648 102.617C43.8368 102.617 46.7628 103.453 46.7628 106.377C46.7628 107.63 45.9268 108.466 44.6728 108.466C43.4188 108.466 42.5828 107.63 42.5828 106.795C42.5828 105.959 43.0008 105.541 43.8368 105.541C44.2548 105.541 44.6728 105.541 44.6728 105.959C44.6728 105.124 43.8368 104.706 43.4188 104.706C42.5828 104.706 41.7468 105.541 41.7468 107.212C41.7468 107.63 41.7468 112.643 41.7468 119.327L33.3867 125.176C33.3867 119.745 33.3867 115.568 33.3867 113.479C33.3867 107.212 37.1488 102.617 42.1648 102.617Z" fill="#B38D56" fill-opacity="0.2"/>
<path d="M32.1316 97.6055C33.8036 97.6055 36.7296 98.441 36.7296 101.365C36.7296 102.619 35.8936 103.454 34.6396 103.454C33.3856 103.454 32.5496 102.619 32.5496 101.783C32.5496 100.948 32.9676 100.53 33.8036 100.53C34.2216 100.53 34.6396 100.53 34.6396 100.948C34.6396 100.112 33.8036 99.6942 33.3856 99.6942C32.5496 99.6942 31.7136 100.53 31.7136 102.201C31.7136 102.619 31.7136 113.898 31.7136 126.013L23.3535 131.861C23.3535 121 23.3535 110.974 23.3535 108.467C23.3535 102.201 27.1155 97.6055 32.1316 97.6055Z" fill="#B38D56" fill-opacity="0.2"/>
<path d="M11.6509 159.016C11.6509 159.016 9.97891 156.927 8.30688 154.839L11.6509 152.332C11.6509 156.51 11.6509 159.016 11.6509 159.016Z" fill="#B38D56" fill-opacity="0.2"/>
<path d="M13.3203 160.27C13.3203 160.27 13.3203 156.928 13.3203 151.497L21.6804 145.648C21.6804 159.434 21.6804 171.549 21.6804 171.549L13.3203 160.27Z" fill="#B38D56" fill-opacity="0.2"/>
<path d="M33.3867 159.017C33.3867 159.017 33.3867 148.155 33.3867 137.294L41.7468 131.445V148.155C42.1648 147.738 33.3867 159.017 33.3867 159.017Z" fill="#B38D56" fill-opacity="0.2"/>
<path d="M23.3535 171.132C23.3535 171.132 23.3535 158.181 23.3535 143.977L31.7136 138.129C31.7136 149.826 31.7136 159.852 31.7136 159.852C32.1316 160.27 23.3535 171.132 23.3535 171.132Z" fill="#B38D56" fill-opacity="0.2"/>
<path d="M113.225 52.0692C114.061 51.2337 113.225 49.9805 113.225 49.9805C113.225 49.9805 112.807 51.2337 111.135 52.487L58.8848 89.2494C57.2128 90.5027 55.9587 90.5027 55.9587 90.5027C55.9587 90.5027 56.7947 91.3382 58.0488 90.9204C57.2128 91.7559 58.0488 93.0092 58.0488 93.0092C58.0488 93.0092 58.4668 91.7559 60.1388 90.5027L112.389 53.7403C114.061 52.487 115.315 52.487 115.315 52.487C115.315 52.487 114.479 51.6515 113.225 52.0692Z" fill="#B38D56" fill-opacity="0.2"/>
<path d="M112.389 192.851C114.061 194.104 115.315 194.104 115.315 194.104C115.315 194.104 114.479 194.94 113.225 194.522C114.061 195.357 113.225 196.611 113.225 196.611C113.225 196.611 112.807 195.357 111.135 194.104L58.8848 157.342C57.2128 156.089 55.9587 156.089 55.9587 156.089C55.9587 156.089 56.7947 155.253 58.0488 155.671C57.2128 154.835 58.0488 153.582 58.0488 153.582C58.0488 153.582 58.4668 154.835 60.1388 156.089" fill="#B38D56" fill-opacity="0.2"/>
<path d="M42.1636 328.625V336.98L7.88731 360.792L3.70728 355.361L42.1636 328.625Z" fill="#B38D56" fill-opacity="0.2"/>
<path d="M3.28995 314.838C3.28995 313.166 2.45394 312.749 1.61793 312.331C1.19993 312.331 0.363943 312.749 0.363943 313.584C0.363943 313.166 1.19994 313.166 1.19994 313.166C1.61794 313.166 2.45396 313.584 2.45396 314.42C2.45396 315.255 1.61795 316.091 0.363943 316.091C-0.890067 316.091 -1.72607 315.255 -1.72607 314.002C-1.72607 311.078 1.61795 310.242 2.87196 310.242C7.47 310.242 11.232 314.838 11.232 321.522C11.232 324.864 11.232 337.396 11.232 348.258L2.87196 354.106C3.28996 346.587 3.28995 315.673 3.28995 314.838Z" fill="#B38D56" fill-opacity="0.2"/>
<path d="M13.3232 309.826C13.3232 308.155 12.4871 307.737 11.6511 307.319C11.2331 307.319 10.3971 307.737 10.3971 308.573C10.3971 308.155 11.2331 308.155 11.2331 308.155C11.6511 308.155 12.4872 308.573 12.4872 309.408C12.4872 310.244 11.6512 311.079 10.3971 311.079C9.14314 311.079 8.30713 310.244 8.30713 308.99C8.30713 306.066 11.6512 305.23 12.9052 305.23C17.5032 305.23 21.2652 309.826 21.2652 316.51C21.2652 319.016 21.2652 329.46 21.2652 340.74L12.9052 346.588C13.3232 330.713 13.3232 310.661 13.3232 309.826Z" fill="#B38D56" fill-opacity="0.2"/>
<path d="M42.165 309.824C43.8371 309.824 46.7631 310.66 46.7631 313.584C46.7631 314.837 45.9271 315.673 44.6731 315.673C43.4191 315.673 42.583 314.837 42.583 314.002C42.583 313.166 43.0011 312.749 43.8371 312.749C44.2551 312.749 44.6731 312.749 44.6731 313.166C44.6731 312.331 43.837 311.913 43.419 311.913C42.583 311.913 41.747 312.748 41.747 314.42C41.747 314.837 41.747 319.85 41.747 326.534L33.387 332.383C33.387 326.952 33.387 322.775 33.387 320.686C33.387 314.42 37.149 309.824 42.165 309.824Z" fill="#B38D56" fill-opacity="0.2"/>
<path d="M32.1318 305.23C33.8039 305.23 36.7299 306.066 36.7299 308.99C36.7299 310.244 35.8939 311.079 34.6399 311.079C33.3859 311.079 32.5498 310.244 32.5498 309.408C32.5498 308.573 32.9679 308.155 33.8039 308.155C34.2219 308.155 34.6399 308.155 34.6399 308.573C34.6399 307.737 33.8039 307.319 33.3859 307.319C32.5499 307.319 31.7138 308.155 31.7138 309.826C31.7138 310.244 31.7138 321.523 31.7138 333.638L23.3538 339.486C23.3538 328.625 23.3538 318.599 23.3538 316.092C23.3538 309.826 27.1158 305.23 32.1318 305.23Z" fill="#B38D56" fill-opacity="0.2"/>
<path d="M11.6512 366.641C11.6512 366.641 9.97915 364.552 8.30713 362.464L11.6512 359.957C11.6512 363.717 11.6512 366.641 11.6512 366.641Z" fill="#B38D56" fill-opacity="0.2"/>
<path d="M13.3206 367.477C13.3206 367.477 13.3206 364.135 13.3206 358.704L21.6806 352.855C21.6806 366.641 21.6806 378.756 21.6806 378.756L13.3206 367.477Z" fill="#B38D56" fill-opacity="0.2"/>
<path d="M33.387 366.642C33.387 366.642 33.387 355.781 33.387 344.919L41.747 339.07V355.781C42.1651 355.363 33.387 366.642 33.387 366.642Z" fill="#B38D56" fill-opacity="0.2"/>
<path d="M23.3538 378.757C23.3538 378.757 23.3538 365.806 23.3538 351.602L31.7138 345.754C31.7138 357.451 31.7138 367.477 31.7138 367.477C32.1318 367.477 23.3538 378.757 23.3538 378.757Z" fill="#B38D56" fill-opacity="0.2"/>
<path d="M113.226 259.694C114.062 258.859 113.226 257.605 113.226 257.605C113.226 257.605 112.808 258.859 111.136 260.112L58.885 296.874C57.213 298.128 55.959 298.128 55.959 298.128C55.959 298.128 56.795 298.963 58.049 298.545C57.213 299.381 58.049 300.634 58.049 300.634C58.049 300.634 58.467 299.381 60.139 298.128L112.389 261.365C114.062 260.112 115.316 260.112 115.316 260.112C115.316 260.112 114.48 259.276 113.226 259.694Z" fill="#B38D56" fill-opacity="0.2"/>
<path d="M112.389 400.476C114.062 401.729 115.316 401.729 115.316 401.729C115.316 401.729 114.48 402.565 113.226 402.147C114.062 402.982 113.226 404.236 113.226 404.236C113.226 404.236 112.808 402.982 111.136 401.729L58.885 364.967C57.213 363.714 55.959 363.714 55.959 363.714C55.959 363.714 56.795 362.878 58.049 363.296C57.213 362.46 58.049 361.207 58.049 361.207C58.049 361.207 58.467 362.46 60.139 363.714" fill="#B38D56" fill-opacity="0.2"/>
</g>
<defs>
<clipPath id="clip0_1118_6882">
<rect width="1312" height="597" fill="white" transform="translate(-144 -6)"/>
</clipPath>
</defs>
</svg>
