<svg width="202" height="132" viewBox="0 0 202 132" fill="none" xmlns="http://www.w3.org/2000/svg">
<g clip-path="url(#clip0_1118_7370)">
<path d="M12.3011 86.8945L12.1762 86.9567L7.55549 97.5888L3.05966 86.9567L2.93478 86.8945H0.124884L0 87.0811L7.36816 104.428H7.61793L15.1734 87.0811L15.0485 86.8945H12.3011Z" fill="#B38D56"/>
<path d="M26.9127 86.2109L18.6079 103.682L18.7328 103.869H21.4802L21.6051 103.807L23.4159 99.8275H30.4719L32.2203 103.807L32.3452 103.869H35.1551L35.2799 103.682L27.2249 86.2109H26.9127ZM29.2855 97.2161H24.6023L27.0376 91.9933L29.2855 97.2161Z" fill="#B38D56"/>
<path d="M48.2053 93.6734L46.5194 92.9894C45.333 92.492 44.771 91.8703 44.771 91.1242C44.771 90.5646 44.9583 90.1293 45.3954 89.7563C45.8325 89.3832 46.3945 89.1967 47.0814 89.1967C47.6433 89.1967 48.0804 89.321 48.3926 89.5076C48.7048 89.6941 49.0795 90.1293 49.4541 90.7511L49.6415 90.8133L51.7021 89.5697L51.7645 89.3832C50.6405 87.4558 49.0795 86.4609 47.0814 86.4609C45.6452 86.4609 44.3963 86.8962 43.3973 87.7666C42.3982 88.6371 41.8987 89.7563 41.8987 90.9998C41.8987 92.9273 43.0851 94.4195 45.4579 95.3521L47.0814 96.0361C47.5184 96.2226 47.8307 96.4091 48.1429 96.5957C48.4551 96.7822 48.7048 96.9687 48.8297 97.2174C49.0171 97.4039 49.1419 97.6527 49.2044 97.9014C49.2668 98.1501 49.3293 98.4609 49.3293 98.7718C49.3293 99.5179 49.0795 100.202 48.58 100.699C48.0804 101.197 47.456 101.445 46.7067 101.445C45.7701 101.445 45.0208 101.135 44.5212 100.388C44.2715 100.015 44.0217 99.3936 43.9592 98.3988L43.7719 98.2744L41.2118 98.834L41.0869 98.9584C41.3367 100.575 41.8987 101.818 42.8977 102.689C43.8968 103.559 45.1456 103.995 46.5818 103.995C48.1429 103.995 49.5166 103.497 50.5157 102.44C51.5772 101.383 52.0767 100.078 52.0767 98.5231C52.0767 97.3418 51.7645 96.347 51.0776 95.5387C50.5781 94.9169 49.579 94.233 48.2053 93.6734Z" fill="#B38D56"/>
<path d="M69.9975 86.8945L69.8726 87.0189V97.0914C69.8726 98.5215 69.6229 99.5785 69.1858 100.2C68.4989 101.133 67.5623 101.568 66.3134 101.568C65.0646 101.568 64.128 101.133 63.4411 100.2C63.004 99.5785 62.7542 98.5215 62.7542 97.0914V87.0189L62.6293 86.8945H60.0692L59.9443 87.0189V97.8375C59.9443 99.6406 60.5063 101.133 61.6303 102.314C62.8791 103.62 64.4402 104.242 66.3134 104.242C68.1242 104.242 69.7477 103.558 70.9966 102.314C72.1205 101.133 72.6825 99.6406 72.6825 97.8375V87.0189L72.5576 86.8945H69.9975Z" fill="#B38D56"/>
<path d="M93.7255 86.8958L93.6006 87.0202V97.901L81.5493 86.3984L81.2996 86.5228V103.808L81.4869 103.932H83.9846L84.1095 103.808V92.9891L96.1608 104.492L96.4105 104.367V87.0202L96.2856 86.8958H93.7255Z" fill="#B38D56"/>
<path d="M112.833 87.3919C111.834 87.0811 110.46 86.8945 108.774 86.8945H105.215L105.09 87.0189V103.806L105.215 103.931H108.712C110.398 103.931 111.771 103.744 112.708 103.433C113.707 103.123 114.706 102.563 115.643 101.755C117.454 100.138 118.39 98.0241 118.39 95.4127C118.39 92.8013 117.516 90.6873 115.768 89.0707C114.893 88.3246 113.894 87.7028 112.833 87.3919ZM108.899 101.257H107.9V89.5059H108.899C111.022 89.5059 112.646 90.0033 113.707 90.9982C114.893 92.1173 115.518 93.6096 115.518 95.3505C115.518 97.1536 114.893 98.5837 113.707 99.7028C113.083 100.262 112.458 100.635 111.709 100.884C110.96 101.133 110.023 101.257 108.899 101.257Z" fill="#B38D56"/>
<path d="M136.186 86.8945L135.999 87.0189V93.423H129.005V87.0189L128.881 86.8945H126.383L126.196 87.0189V103.806L126.383 103.931H128.881L129.005 103.806V96.0966H135.999V103.806L136.186 103.931H138.684L138.809 103.806V87.0189L138.684 86.8945H136.186Z" fill="#B38D56"/>
<path d="M153.92 86.2109L145.615 103.745L145.74 103.931H148.487L148.612 103.869L150.423 99.8897H157.479L159.227 103.869L159.352 103.931H162.162L162.287 103.745L154.232 86.2109H153.92ZM156.292 97.2161H151.609L153.982 91.9933L156.292 97.2161Z" fill="#B38D56"/>
<path d="M177.585 95.1015C178.272 94.231 178.647 93.174 178.647 91.9305C178.647 90.3761 178.085 89.1325 176.961 88.1377C175.962 87.2673 174.276 86.832 172.028 86.832H169.031L168.906 86.9564V103.744L169.031 103.868H171.591L171.716 103.744V97.0289H171.965L176.711 103.806L176.836 103.868H179.958L180.083 103.682L174.963 96.718C176.087 96.4693 176.961 95.9098 177.585 95.1015ZM175.899 91.9927C175.899 93.7336 174.775 94.6041 172.403 94.6041H171.716V89.5678H172.465C174.838 89.5678 175.899 90.3139 175.899 91.9927Z" fill="#B38D56"/>
<path d="M193.945 86.2109H193.695L185.39 103.745L185.515 103.931H188.263L188.388 103.869L190.198 99.8897H197.254L199.003 103.869L199.128 103.931H201.937L202.062 103.745L193.945 86.2109ZM196.13 97.2161H191.447L193.882 91.9933L196.13 97.2161Z" fill="#B38D56"/>
<path d="M39.6453 120.506V122.063C38.8858 121.427 38.1 121.11 37.2878 121.11C36.3929 121.11 35.6391 121.431 35.0262 122.074C34.4096 122.713 34.1012 123.495 34.1012 124.42C34.1012 125.334 34.4096 126.105 35.0262 126.733C35.6428 127.361 36.3986 127.675 37.2935 127.675C37.7559 127.675 38.1488 127.599 38.4722 127.449C38.6527 127.374 38.8388 127.272 39.0306 127.144C39.2261 127.017 39.431 126.862 39.6453 126.682V128.267C38.8933 128.692 38.1037 128.904 37.2765 128.904C36.032 128.904 34.9698 128.47 34.09 127.601C33.2139 126.725 32.7759 125.669 32.7759 124.432C32.7759 123.322 33.1425 122.333 33.8757 121.465C34.778 120.401 35.9455 119.869 37.3781 119.869C38.1601 119.869 38.9159 120.081 39.6453 120.506ZM40.8184 124.353C40.8184 123.127 41.2677 122.074 42.1664 121.194C43.0612 120.314 44.1366 119.874 45.3924 119.874C46.6332 119.874 47.6973 120.318 48.5846 121.205C49.4757 122.093 49.9213 123.159 49.9213 124.403C49.9213 125.655 49.4738 126.718 48.579 127.59C47.6803 128.466 46.5956 128.904 45.3247 128.904C44.2005 128.904 43.191 128.515 42.2961 127.737C41.311 126.876 40.8184 125.748 40.8184 124.353ZM42.1438 124.369C42.1438 125.332 42.4672 126.124 43.1139 126.744C43.7568 127.364 44.4994 127.675 45.3417 127.675C46.2553 127.675 47.0261 127.359 47.654 126.727C48.2819 126.088 48.5959 125.309 48.5959 124.392C48.5959 123.463 48.2857 122.685 47.6653 122.057C47.0487 121.425 46.2854 121.11 45.3755 121.11C44.4693 121.11 43.7042 121.425 43.08 122.057C42.4559 122.681 42.1438 123.452 42.1438 124.369ZM52.8879 120.038V125.283C52.8879 126.031 53.0101 126.578 53.2545 126.924C53.6192 127.424 54.1324 127.675 54.7942 127.675C55.4597 127.675 55.9748 127.424 56.3395 126.924C56.5839 126.59 56.7061 126.043 56.7061 125.283V120.038H58.0202V125.644C58.0202 126.562 57.7345 127.317 57.163 127.911C56.52 128.573 55.7304 128.904 54.7942 128.904C53.858 128.904 53.0703 128.573 52.4311 127.911C51.8595 127.317 51.5738 126.562 51.5738 125.644V120.038H52.8879ZM60.1127 128.746V119.446L66.4632 126.09V120.038H67.7773V129.276L61.4268 122.649V128.746H60.1127ZM72.2724 121.273V128.746H70.9583V121.273H68.9561V120.038H74.2689V121.273H72.2724ZM76.7561 120.038V127.511H79.3167V128.746H75.442V120.038H76.7561ZM85.3683 121.273H81.8772V123.366H85.2668V124.601H81.8772V127.511H85.3683V128.746H80.5631V120.038H85.3683V121.273ZM92.0178 121.335L90.9519 121.967C90.7526 121.621 90.5627 121.395 90.3822 121.29C90.1942 121.17 89.9517 121.11 89.6547 121.11C89.29 121.11 88.9873 121.213 88.7466 121.42C88.506 121.623 88.3857 121.879 88.3857 122.187C88.3857 122.612 88.7015 122.954 89.3332 123.213L90.2017 123.569C90.9086 123.854 91.4256 124.204 91.7527 124.618C92.0798 125.027 92.2434 125.531 92.2434 126.129C92.2434 126.93 91.9764 127.592 91.4425 128.114C90.9049 128.641 90.2375 128.904 89.4404 128.904C88.6846 128.904 88.0604 128.68 87.5679 128.233C87.0829 127.785 86.7802 127.156 86.6599 126.343L87.9909 126.05C88.051 126.562 88.1563 126.915 88.3067 127.111C88.5774 127.487 88.9722 127.675 89.4911 127.675C89.901 127.675 90.2412 127.537 90.5119 127.263C90.7827 126.988 90.918 126.641 90.918 126.219C90.918 126.05 90.8936 125.896 90.8447 125.757C90.7996 125.614 90.7263 125.484 90.6247 125.368C90.527 125.247 90.3991 125.137 90.2412 125.035C90.0833 124.93 89.8953 124.83 89.6772 124.736L88.8369 124.386C87.645 123.883 87.049 123.146 87.049 122.176C87.049 121.521 87.2991 120.974 87.7991 120.534C88.2992 120.091 88.9215 119.869 89.666 119.869C90.6699 119.869 91.4538 120.358 92.0178 121.335ZM98.7519 121.335L97.6859 121.967C97.4867 121.621 97.2968 121.395 97.1163 121.29C96.9283 121.17 96.6858 121.11 96.3888 121.11C96.024 121.11 95.7214 121.213 95.4807 121.42C95.2401 121.623 95.1198 121.879 95.1198 122.187C95.1198 122.612 95.4356 122.954 96.0673 123.213L96.9358 123.569C97.6427 123.854 98.1597 124.204 98.4868 124.618C98.8139 125.027 98.9775 125.531 98.9775 126.129C98.9775 126.93 98.7105 127.592 98.1766 128.114C97.6389 128.641 96.9716 128.904 96.1744 128.904C95.4187 128.904 94.7945 128.68 94.302 128.233C93.8169 127.785 93.5143 127.156 93.394 126.343L94.725 126.05C94.7851 126.562 94.8904 126.915 95.0408 127.111C95.3115 127.487 95.7063 127.675 96.2252 127.675C96.635 127.675 96.9753 127.537 97.246 127.263C97.5168 126.988 97.6521 126.641 97.6521 126.219C97.6521 126.05 97.6277 125.896 97.5788 125.757C97.5337 125.614 97.4604 125.484 97.3588 125.368C97.2611 125.247 97.1332 125.137 96.9753 125.035C96.8174 124.93 96.6294 124.83 96.4113 124.736L95.571 124.386C94.3791 123.883 93.7831 123.146 93.7831 122.176C93.7831 121.521 94.0331 120.974 94.5332 120.534C95.0333 120.091 95.6556 119.869 96.4 119.869C97.404 119.869 98.1879 120.358 98.7519 121.335ZM106.529 121.273V128.746H105.215V121.273H103.213V120.038H108.526V121.273H106.529ZM114.341 126.631H110.613L109.643 128.746H108.227L112.536 119.491L116.693 128.746H115.254L114.341 126.631ZM113.805 125.396L112.513 122.435L111.16 125.396H113.805ZM119.101 120.038V127.511H121.661V128.746H117.787V120.038H119.101ZM127.713 121.273H124.222V123.366H127.611V124.601H124.222V127.511H127.713V128.746H122.908V120.038H127.713V121.273ZM134.362 121.335L133.297 121.967C133.097 121.621 132.907 121.395 132.727 121.29C132.539 121.17 132.296 121.11 131.999 121.11C131.635 121.11 131.332 121.213 131.091 121.42C130.851 121.623 130.73 121.879 130.73 122.187C130.73 122.612 131.046 122.954 131.678 123.213L132.546 123.569C133.253 123.854 133.77 124.204 134.097 124.618C134.425 125.027 134.588 125.531 134.588 126.129C134.588 126.93 134.321 127.592 133.787 128.114C133.25 128.641 132.582 128.904 131.785 128.904C131.029 128.904 130.405 128.68 129.913 128.233C129.428 127.785 129.125 127.156 129.005 126.343L130.336 126.05C130.396 126.562 130.501 126.915 130.651 127.111C130.922 127.487 131.317 127.675 131.836 127.675C132.246 127.675 132.586 127.537 132.857 127.263C133.127 126.988 133.263 126.641 133.263 126.219C133.263 126.05 133.238 125.896 133.189 125.757C133.144 125.614 133.071 125.484 132.969 125.368C132.872 125.247 132.744 125.137 132.586 125.035C132.428 124.93 132.24 124.83 132.022 124.736L131.182 124.386C129.99 123.883 129.394 123.146 129.394 122.176C129.394 121.521 129.644 120.974 130.144 120.534C130.644 120.091 131.266 119.869 132.011 119.869C133.015 119.869 133.798 120.358 134.362 121.335ZM32.7759 139.353C32.7759 138.127 33.2252 137.074 34.1238 136.194C35.0187 135.314 36.094 134.874 37.3499 134.874C38.5906 134.874 39.6547 135.318 40.5421 136.205C41.4332 137.093 41.8787 138.159 41.8787 139.403C41.8787 140.655 41.4313 141.718 40.5364 142.59C39.6378 143.466 38.553 143.904 37.2822 143.904C36.1579 143.904 35.1484 143.515 34.2535 142.737C33.2684 141.876 32.7759 140.748 32.7759 139.353ZM34.1012 139.369C34.1012 140.332 34.4246 141.124 35.0713 141.744C35.7143 142.364 36.4569 142.675 37.2991 142.675C38.2128 142.675 38.9836 142.359 39.6115 141.727C40.2394 141.088 40.5533 140.309 40.5533 139.392C40.5533 138.463 40.2431 137.685 39.6228 137.057C39.0061 136.425 38.2428 136.11 37.3329 136.11C36.4268 136.11 35.6616 136.425 35.0375 137.057C34.4133 137.681 34.1012 138.452 34.1012 139.369ZM47.8796 136.273H44.8453V138.366H47.7725V139.601H44.8453V143.746H43.5312V135.038H47.8796V136.273ZM54.2866 140.21V143.746H52.9725V135.038H54.4614C55.1909 135.038 55.7417 135.089 56.1139 135.19C56.4899 135.292 56.8208 135.484 57.1066 135.766C57.6066 136.254 57.8567 136.871 57.8567 137.615C57.8567 138.413 57.5897 139.044 57.0558 139.51C56.5219 139.977 55.8019 140.21 54.8957 140.21H54.2866ZM54.2866 138.992H54.7773C55.9842 138.992 56.5877 138.527 56.5877 137.599C56.5877 136.7 55.9654 136.251 54.7209 136.251H54.2866V138.992ZM62.16 140.035L64.8558 143.746H63.2485L60.7613 140.182H60.5244V143.746H59.2103V135.038H60.75C61.9005 135.038 62.7315 135.254 63.2428 135.687C63.8068 136.168 64.0888 136.803 64.0888 137.593C64.0888 138.21 63.9121 138.74 63.5587 139.183C63.2052 139.627 62.739 139.911 62.16 140.035ZM60.5244 139.037H60.9417C62.1863 139.037 62.8085 138.561 62.8085 137.61C62.8085 136.719 62.2032 136.273 60.9925 136.273H60.5244V139.037ZM70.9752 136.273H67.4841V138.366H70.8737V139.601H67.4841V142.511H70.9752V143.746H66.17V135.038H70.9752V136.273ZM79.1362 135.506V137.063C78.3767 136.427 77.5908 136.11 76.7787 136.11C75.8838 136.11 75.1299 136.431 74.5171 137.074C73.9004 137.713 73.5921 138.495 73.5921 139.42C73.5921 140.334 73.9004 141.105 74.5171 141.733C75.1337 142.361 75.8895 142.675 76.7843 142.675C77.2468 142.675 77.6397 142.599 77.9631 142.449C78.1436 142.374 78.3297 142.272 78.5214 142.144C78.7169 142.017 78.9219 141.862 79.1362 141.682V143.267C78.3842 143.692 77.5946 143.904 76.7674 143.904C75.5229 143.904 74.4607 143.47 73.5808 142.601C72.7048 141.725 72.2667 140.669 72.2667 139.432C72.2667 138.322 72.6333 137.333 73.3665 136.465C74.2689 135.401 75.4364 134.869 76.8689 134.869C77.651 134.869 78.4067 135.081 79.1362 135.506ZM82.1141 135.038V143.746H80.8V135.038H82.1141ZM83.7722 139.353C83.7722 138.127 84.2215 137.074 85.1202 136.194C86.015 135.314 87.0904 134.874 88.3462 134.874C89.587 134.874 90.6511 135.318 91.5384 136.205C92.4295 137.093 92.8751 138.159 92.8751 139.403C92.8751 140.655 92.4276 141.718 91.5328 142.59C90.6341 143.466 89.5494 143.904 88.2785 143.904C87.1543 143.904 86.1447 143.515 85.2499 142.737C84.2648 141.876 83.7722 140.748 83.7722 139.353ZM85.0976 139.369C85.0976 140.332 85.421 141.124 86.0677 141.744C86.7106 142.364 87.4532 142.675 88.2954 142.675C89.2091 142.675 89.9799 142.359 90.6078 141.727C91.2357 141.088 91.5497 140.309 91.5497 139.392C91.5497 138.463 91.2395 137.685 90.6191 137.057C90.0025 136.425 89.2392 136.11 88.3293 136.11C87.4231 136.11 86.658 136.425 86.0338 137.057C85.4097 137.681 85.0976 138.452 85.0976 139.369ZM95.8417 135.038V140.283C95.8417 141.031 95.9639 141.578 96.2083 141.924C96.573 142.424 97.0862 142.675 97.748 142.675C98.4135 142.675 98.9286 142.424 99.2933 141.924C99.5377 141.59 99.6599 141.043 99.6599 140.283V135.038H100.974V140.644C100.974 141.562 100.688 142.317 100.117 142.911C99.4738 143.573 98.6842 143.904 97.748 143.904C96.8118 143.904 96.024 143.573 95.3849 142.911C94.8133 142.317 94.5276 141.562 94.5276 140.644V135.038H95.8417ZM107.99 136.335L106.924 136.967C106.725 136.621 106.535 136.395 106.355 136.29C106.167 136.17 105.924 136.11 105.627 136.11C105.262 136.11 104.96 136.213 104.719 136.42C104.478 136.623 104.358 136.879 104.358 137.187C104.358 137.612 104.674 137.954 105.306 138.213L106.174 138.569C106.881 138.854 107.398 139.204 107.725 139.618C108.052 140.027 108.216 140.531 108.216 141.129C108.216 141.93 107.949 142.592 107.415 143.114C106.877 143.641 106.21 143.904 105.413 143.904C104.657 143.904 104.033 143.68 103.54 143.233C103.055 142.785 102.752 142.156 102.632 141.343L103.963 141.05C104.023 141.562 104.129 141.915 104.279 142.111C104.55 142.487 104.945 142.675 105.463 142.675C105.873 142.675 106.214 142.537 106.484 142.263C106.755 141.988 106.89 141.641 106.89 141.219C106.89 141.05 106.866 140.896 106.817 140.757C106.772 140.614 106.699 140.484 106.597 140.368C106.499 140.247 106.371 140.137 106.214 140.035C106.056 139.93 105.868 139.83 105.65 139.736L104.809 139.386C103.617 138.883 103.021 138.146 103.021 137.176C103.021 136.521 103.271 135.974 103.771 135.534C104.272 135.091 104.894 134.869 105.638 134.869C106.642 134.869 107.426 135.358 107.99 136.335Z" fill="#B38D56"/>
<path d="M78.7397 25.1211V34.0745L115.83 60.0019L120.326 54.1574L78.7397 25.1211Z" fill="#B38D56"/>
<path d="M120.513 10.0089C120.451 8.26799 121.2 7.52188 122.137 7.52188C122.699 7.52188 123.448 7.89494 123.386 8.64105C123.198 8.26799 122.636 8.14364 122.324 8.14364C121.637 8.14364 121.138 8.82758 121.138 9.63587C121.138 10.6929 122.074 11.5012 123.323 11.5012C124.697 11.5012 125.633 10.6307 125.633 9.01411C125.571 5.9053 122.074 4.97266 120.451 4.97266C115.268 4.97266 111.334 9.94675 111.334 17.0348C111.334 20.641 111.334 34.0711 111.334 45.9467L120.513 52.3509C120.513 44.3923 120.513 11.0037 120.513 10.0089Z" fill="#B38D56"/>
<path d="M109.648 5.03627C109.586 3.29534 110.335 2.54922 111.272 2.54922C111.834 2.54922 112.583 2.92228 112.521 3.66839C112.333 3.29534 111.771 3.17098 111.459 3.17098C110.772 3.17098 110.273 3.85492 110.273 4.66321C110.273 5.72021 111.209 6.5285 112.458 6.5285C113.832 6.5285 114.769 5.65803 114.769 4.04145C114.706 0.932642 111.209 0 109.586 0C104.466 0 100.532 4.97409 100.532 12.0622C100.532 14.7979 100.532 25.9275 100.532 38.4249L109.648 44.829C109.711 27.2332 109.711 5.65803 109.648 5.03627Z" fill="#B38D56"/>
<path d="M78.7396 5.03516C77.1161 5.03516 73.6193 6.02997 73.5569 9.07661C73.5569 10.631 74.4935 11.5637 75.8672 11.5637C77.0536 11.5637 78.0527 10.7554 78.0527 9.69837C78.0527 8.89008 77.4907 8.26832 76.8663 8.20614C76.5541 8.20614 76.0546 8.33049 75.8048 8.70355C75.8048 7.95744 76.4917 7.58438 77.0536 7.58438C77.9903 7.58438 78.7396 8.33049 78.6771 10.0714C78.6771 10.4445 78.6771 16.1025 78.6771 23.1906L87.7937 29.5947C87.7937 23.8124 87.7937 19.0248 87.7937 17.0973C87.8561 9.94707 83.9847 5.03516 78.7396 5.03516Z" fill="#B38D56"/>
<path d="M89.6043 0C87.9808 0 84.4841 0.994819 84.4216 4.04145C84.4216 5.59586 85.3583 6.5285 86.732 6.5285C87.9184 6.5285 88.9175 5.72021 88.9175 4.66321C88.9175 3.85492 88.3555 3.23316 87.7311 3.17098C87.4189 3.17098 86.9193 3.29534 86.6695 3.66839C86.6695 2.92228 87.3564 2.54922 87.9184 2.54922C88.855 2.54922 89.6043 3.29534 89.5419 5.03627C89.5419 5.53368 89.5419 17.4715 89.5419 30.7772L98.6584 37.1813C98.6584 25.2435 98.6584 14.7358 98.6584 12.1244C98.7209 4.97409 94.787 0 89.6043 0Z" fill="#B38D56"/>
<path d="M111.397 66.0292C111.397 66.0292 113.083 63.853 114.956 61.366L111.397 58.8789C111.397 63.1691 111.397 66.0292 111.397 66.0292Z" fill="#B38D56"/>
<path d="M109.711 67.214C109.711 67.214 109.711 63.4212 109.711 57.6388L100.532 51.2969C100.532 66.0326 100.532 79.214 100.532 79.214C100.532 79.214 109.648 67.214 109.711 67.214Z" fill="#B38D56"/>
<path d="M87.8563 66.0314C87.8563 66.0314 87.8563 54.4666 87.8563 42.4666L78.7397 36.0625V54.0936L87.8563 66.0314Z" fill="#B38D56"/>
<path d="M98.7211 79.2132C98.7211 79.2132 98.7211 65.2857 98.7211 50.0526L89.6046 43.6484C89.6046 56.3324 89.6046 67.2754 89.6046 67.2754C89.5421 67.2132 98.7211 79.2132 98.7211 79.2132Z" fill="#B38D56"/>
</g>
<defs>
<clipPath id="clip0_1118_7370">
<rect width="202" height="132" fill="white"/>
</clipPath>
</defs>
</svg>
